<svg width="467" height="302" viewBox="0 0 467 302" fill="none" xmlns="http://www.w3.org/2000/svg">
<path d="M467 302H0C5.11715 289.056 14.5652 278.075 27.8884 274.817C47.3754 270.058 67.9979 283.144 87.4415 278.223C98.4882 275.431 107.185 267.293 116.323 260.535C150.799 235.038 198.045 227.502 238.84 240.998C260.164 248.048 279.595 260.379 301.439 265.621C329.686 272.402 359.226 266.779 388.275 265.852C416.566 264.95 457.101 276.385 467 302Z" fill="#F3F5FD"/>
<path d="M378.739 11.5623H110.651V194.69H378.739V11.5623Z" fill="#F3F5FD"/>
<path d="M389.601 3.05176e-05H99.7898V11.5623H389.601V3.05176e-05Z" fill="#191047"/>
<path d="M381.124 194.69H108.267V198.844H381.124V194.69Z" fill="#191047"/>
<path d="M246.947 23.9299H123.142V97.6752H246.947V23.9299Z" fill="white"/>
<path d="M234.212 60.8257C234.211 64.6524 233.325 68.4279 231.622 71.8615C229.919 75.2952 227.445 78.2954 224.389 80.6313C221.334 82.9672 217.778 84.5764 213.997 85.3351C210.216 86.0938 206.31 85.9817 202.579 85.0074C198.849 84.0331 195.393 82.2227 192.479 79.7155C189.565 77.2082 187.269 74.0711 185.769 70.5455C184.269 67.0199 183.605 63.1999 183.827 59.3796C184.049 55.5592 185.152 51.8405 187.051 48.5095L208.999 60.8257L233.495 54.9066H233.5C233.975 56.8444 234.214 58.8316 234.212 60.8257Z" fill="#017FFA"/>
<path d="M233.5 54.9066L208.997 60.8256L218.769 37.7661C222.403 39.2832 225.629 41.6238 228.187 44.6004C230.745 47.577 232.565 51.1067 233.5 54.9066Z" fill="#C1D8ED"/>
<path d="M169.507 43.6H136.032V49.0821H169.507V43.6Z" fill="#DEE8F5"/>
<path d="M169.507 58.0616H136.032V63.5436H169.507V58.0616Z" fill="#DEE8F5"/>
<path d="M169.507 72.5231H136.032V78.0051H169.507V72.5231Z" fill="#DEE8F5"/>
<path d="M218.77 37.766L208.997 60.8256L187.05 48.5094C190.094 43.1769 195.005 39.1375 200.851 37.1571C206.697 35.1767 213.073 35.3929 218.769 37.7647L218.77 37.766Z" fill="#F3F5FD"/>
<path d="M246.947 109.331H123.142V183.076H246.947V109.331Z" fill="white"/>
<path d="M147.635 137.227H135.412V171.292H147.635V137.227Z" fill="#C1D8ED"/>
<path d="M212.568 141.457H200.344V171.292H212.568V141.457Z" fill="#C1D8ED"/>
<path d="M169.279 128.214H157.056V171.292H169.279V128.214Z" fill="#C1D8ED"/>
<path d="M190.923 147.329H178.7V171.292H190.923V147.329Z" fill="#C1D8ED"/>
<path d="M234.211 135.15H221.988V171.292H234.211V135.15Z" fill="#C1D8ED"/>
<path d="M365.548 24.4748H259.663V183.62H365.548V24.4748Z" fill="white"/>
<path d="M312.605 71.3514L325.021 49.5812C320.571 47.0841 315.461 45.988 310.368 46.4382C305.275 46.8884 300.44 48.8637 296.505 52.1021C292.57 55.3405 289.721 59.689 288.334 64.5709C286.948 69.4528 287.09 74.6374 288.743 79.4371C290.395 84.2368 293.479 88.4248 297.587 91.4458C301.694 94.4668 306.629 96.1779 311.739 96.3522C316.849 96.5266 321.892 95.1559 326.199 92.4221C330.505 89.6882 333.872 85.7203 335.853 81.0445L312.605 71.3514Z" fill="#FFC239"/>
<path d="M335.852 81.0445L312.605 71.3514L325.021 49.5812C330.397 52.6006 334.469 57.4716 336.465 63.2708C338.462 69.0699 338.244 75.3941 335.853 81.0445H335.852Z" fill="#F3F5FD"/>
<path d="M348.986 113.084H276.224V118.2H348.986V113.084Z" fill="#DEE8F5"/>
<path d="M348.986 127.63H276.224V132.746H348.986V127.63Z" fill="#DEE8F5"/>
<path d="M348.986 142.175H276.224V147.291H348.986V142.175Z" fill="#DEE8F5"/>
<path d="M339.96 156.501H285.251V161.618H339.96V156.501Z" fill="#DEE8F5"/>
<path d="M105.611 178.537C114.616 217.884 122.767 257.497 129.201 297.342L120.156 299.188C110.212 260.059 101.945 220.469 94.5576 180.793L105.611 178.537Z" fill="#E98862"/>
<path d="M86.9972 180.975C87.8281 220.065 87.769 259.241 85.975 298.305H76.7386C74.9463 259.242 74.8926 220.064 75.7168 180.975H86.9972Z" fill="#E98862"/>
<path d="M97.9189 301.916C98.1623 301.915 98.4032 301.866 98.6277 301.773C98.8522 301.679 99.0559 301.543 99.2272 301.371C99.3986 301.2 99.5341 300.996 99.6262 300.773C99.7183 300.549 99.7651 300.31 99.7639 300.068C99.7639 300.023 99.7639 299.979 99.7585 299.934C99.7314 299.584 99.604 299.25 99.3913 298.97C99.1787 298.69 98.8896 298.476 98.5584 298.354L87.527 294.689C87.3134 294.619 87.0869 294.595 86.8632 294.62C86.6395 294.644 86.4238 294.717 86.2308 294.832C84.7142 295.875 82.9 296.409 81.055 296.354C79.6179 296.253 78.2383 295.753 77.0739 294.911C76.9715 294.828 76.8474 294.775 76.716 294.759C76.5847 294.743 76.4514 294.765 76.3318 294.821C76.2122 294.877 76.1112 294.966 76.0407 295.077C75.9701 295.188 75.9329 295.317 75.9334 295.448V300.799C75.9334 301.117 76.0607 301.422 76.2874 301.647C76.514 301.872 76.8215 301.998 77.142 301.998H77.147L97.9189 301.916Z" fill="#017FFA"/>
<path d="M140.223 301.916C140.467 301.915 140.708 301.866 140.932 301.773C141.157 301.679 141.361 301.543 141.532 301.371C141.703 301.199 141.839 300.996 141.931 300.772C142.023 300.549 142.07 300.309 142.069 300.068C142.069 300.023 142.069 299.978 142.063 299.933C142.036 299.584 141.908 299.25 141.695 298.97C141.483 298.69 141.194 298.476 140.863 298.354L129.831 294.688C129.618 294.618 129.391 294.594 129.168 294.619C128.944 294.644 128.728 294.716 128.535 294.831C127.019 295.875 125.204 296.409 123.359 296.353C121.922 296.252 120.543 295.752 119.379 294.911C119.276 294.827 119.152 294.775 119.021 294.759C118.889 294.743 118.756 294.764 118.636 294.821C118.517 294.877 118.416 294.966 118.345 295.077C118.275 295.188 118.237 295.317 118.238 295.448V300.799C118.238 301.117 118.365 301.422 118.592 301.647C118.818 301.871 119.126 301.998 119.446 301.998H119.451L140.223 301.916Z" fill="#017FFA"/>
<path d="M69.9941 164.099C69.9941 164.099 64.8675 186.874 64.8675 206.027C64.8675 225.18 58.9803 254.846 58.9803 254.846C58.9803 254.846 75.6646 252.169 86.9829 254.846C106.484 259.457 123.97 249.414 123.97 249.414L104.33 166.201L69.9941 164.099Z" fill="#262626"/>
<path d="M129.01 117.82C129.01 117.82 129.077 112.443 132.952 112.723C135.397 112.9 147.011 112.365 147.184 113.414C147.612 116.011 136.988 116.645 136.023 119.065L129.01 117.82Z" fill="#E98862"/>
<path d="M131.58 112.896C131.58 112.896 136.973 111.15 138.299 111.463C139.472 111.739 137.026 113.634 137.026 113.634L131.58 112.896Z" fill="#E98862"/>
<path d="M99.0607 91.0108C99.0607 91.0108 102.482 103.17 104.404 109.479C104.495 109.778 104.514 110.094 104.46 110.402C104.405 110.709 104.279 111 104.092 111.251C103.904 111.501 103.659 111.705 103.378 111.845C103.097 111.985 102.786 112.058 102.471 112.057H90.4661C89.9475 112.057 89.4489 111.859 89.0736 111.504C88.6983 111.149 88.4752 110.665 88.4505 110.151L87.6412 93.2246L99.0607 91.0108Z" fill="#701111"/>
<path d="M80.6619 118.058C80.6619 118.058 84.1538 116.226 83.3829 106.798L90.5947 105.478C90.5947 105.478 89.7769 113.929 93.4222 116.616L80.6619 118.058Z" fill="#E98862"/>
<g opacity="0.15">
<path d="M91.9465 114.848L85.9606 110.297L90.6652 110.252C90.8002 111.85 91.2347 113.409 91.9465 114.848Z" fill="black"/>
</g>
<path d="M79.2949 103.139C79.7914 106 81.3625 108.71 83.9053 109.635C86.6765 110.73 89.6755 111.134 92.6407 110.814C100.535 110.179 98.9895 92.3741 95.2448 88.9125C91.5002 85.4509 80.5 87.6312 79.1568 93.4141C78.4622 96.4051 78.8224 100.419 79.2949 103.139Z" fill="#E98862"/>
<path d="M90.5894 100.946C90.9506 100.946 91.2434 100.656 91.2434 100.297C91.2434 99.9391 90.9506 99.6487 90.5894 99.6487C90.2282 99.6487 89.9354 99.9391 89.9354 100.297C89.9354 100.656 90.2282 100.946 90.5894 100.946Z" fill="#701111"/>
<path d="M95.7488 100.531C96.11 100.531 96.4028 100.241 96.4028 99.8824C96.4028 99.5241 96.11 99.2337 95.7488 99.2337C95.3876 99.2337 95.0948 99.5241 95.0948 99.8824C95.0948 100.241 95.3876 100.531 95.7488 100.531Z" fill="#701111"/>
<path d="M96.8836 98.5012H96.8795L95.1469 98.4779C95.1056 98.4789 95.0645 98.4715 95.0262 98.4564C94.9878 98.4412 94.9529 98.4186 94.9236 98.3897C94.8942 98.3609 94.8711 98.3265 94.8554 98.2886C94.8398 98.2507 94.832 98.2101 94.8325 98.1691C94.8331 98.1282 94.842 98.0877 94.8586 98.0502C94.8752 98.0128 94.8993 97.979 94.9294 97.9509C94.9595 97.9229 94.995 97.9011 95.0338 97.887C95.0725 97.8729 95.1137 97.8666 95.155 97.8686L96.8876 97.8915C96.928 97.8917 96.9679 97.8999 97.0051 97.9154C97.0423 97.931 97.076 97.9537 97.1044 97.9822C97.1327 98.0107 97.1551 98.0444 97.1703 98.0815C97.1855 98.1186 97.1932 98.1583 97.193 98.1984C97.1927 98.2384 97.1845 98.278 97.1688 98.3149C97.1531 98.3518 97.1302 98.3852 97.1015 98.4133C97.0728 98.4415 97.0387 98.4637 97.0013 98.4788C96.964 98.4939 96.9239 98.5015 96.8836 98.5012Z" fill="#701111"/>
<path d="M89.1788 99.1204C89.1036 99.1203 89.0311 99.0929 88.9749 99.0433C88.9187 98.9937 88.8828 98.9254 88.874 98.8513C88.8651 98.7773 88.884 98.7025 88.9269 98.6413C88.9699 98.5801 89.034 98.5366 89.1071 98.5191L90.8158 98.1126C90.8951 98.0937 90.9787 98.1069 91.0483 98.1491C91.1178 98.1914 91.1675 98.2594 91.1866 98.338C91.2056 98.4167 91.1924 98.4996 91.1497 98.5686C91.1071 98.6376 91.0386 98.6869 90.9593 98.7058L89.2511 99.1119C89.2274 99.1175 89.2032 99.1204 89.1788 99.1204Z" fill="#701111"/>
<path d="M90.8873 105.406C90.8873 105.406 93.301 105.661 94.9944 105.077C94.9944 105.077 94.9795 106.653 93.069 106.807C91.1586 106.961 90.8873 105.406 90.8873 105.406Z" fill="white"/>
<g opacity="0.15">
<path d="M93.489 103.898C93.435 103.898 93.3828 103.879 93.3419 103.844C93.301 103.809 93.2741 103.76 93.2661 103.707C93.2582 103.654 93.2696 103.6 93.2984 103.555C93.3272 103.51 93.3715 103.476 93.4231 103.46L94.7532 103.057L93.8248 101.002C93.8025 100.948 93.8022 100.888 93.8239 100.834C93.8456 100.78 93.8877 100.736 93.9412 100.712C93.9947 100.688 94.0554 100.686 94.1105 100.706C94.1656 100.726 94.2108 100.766 94.2364 100.819L95.3738 103.337L93.5554 103.89C93.5337 103.896 93.5114 103.899 93.489 103.898Z" fill="black"/>
</g>
<path d="M99.4724 92.4685C99.4724 92.4685 98.3165 83.1953 83.3374 85.4728C79.6031 86.0404 74.3109 88.9326 73.4534 98.4112C73.0616 102.759 71.5506 106.859 70.3979 109.454C70.2614 109.758 70.2039 110.092 70.2304 110.424C70.2569 110.757 70.3667 111.077 70.5498 111.357C70.7328 111.636 70.9834 111.866 71.2786 112.025C71.5739 112.184 71.9046 112.268 72.2406 112.268L82.7701 112.272C83.3044 112.272 83.8172 112.063 84.1957 111.689C84.5741 111.314 84.7874 110.807 84.7884 110.277C84.7884 110.247 84.7884 110.218 84.7884 110.187C84.7126 108.409 84.653 105.399 84.755 100.799C85.3025 98.1731 83.8443 96.3218 85.961 96.9253C93.8204 99.1625 98.882 92.6185 99.4724 92.4685Z" fill="#701111"/>
<path d="M87.2865 103.091C87.3459 103.818 87.1118 104.538 86.6355 105.094C86.1593 105.65 85.48 105.995 84.7471 106.054C84.0142 106.113 83.2877 105.881 82.7274 105.408C82.1671 104.936 81.819 104.262 81.7595 103.535C81.6892 102.821 81.9074 102.109 82.3663 101.555C82.8252 101.001 83.4872 100.65 84.2066 100.58C84.2373 100.577 84.268 100.575 84.2969 100.573C86.2733 100.508 87.1606 101.576 87.2865 103.091Z" fill="#E98862"/>
<path d="M128.554 114.679L118.829 132.691L104.279 119.19C103.61 118.156 102.692 117.304 101.608 116.711L101.538 116.646L101.521 116.664C99.8778 115.845 98.0672 115.409 96.2278 115.391C95.9435 115.377 95.4876 115.368 94.9014 115.359C94.784 117.822 79.4114 117.813 79.0869 115.301C74.7446 115.306 71.1841 116.626 69.1211 118.672C62.0127 125.723 70.7373 137.74 70.7373 147.141C70.7373 156.543 66.4497 160.76 66.7656 165.586C67.2621 173.17 104.419 171.38 106.31 167.068C107.418 164.547 106.62 162.572 105.757 158.678L114.573 158.41L114.274 148.65L104.525 148.945C104.483 147.832 104.465 146.64 104.48 145.351C104.525 141.554 105.169 137.34 105.616 133.299L116.86 143.73C117.738 144.545 118.895 144.998 120.097 144.998C120.356 144.998 120.613 144.977 120.868 144.936C121.585 144.819 122.265 144.54 122.855 144.121C123.446 143.702 123.932 143.153 124.275 142.518L136.912 119.113L128.554 114.679Z" fill="#017FFA"/>
<path d="M94.9012 115.359C94.7843 117.822 93.4344 121.443 89.2686 121.717C83.7173 122.079 79.4116 117.813 79.0867 115.301H79.1007C84.5658 115.301 91.7144 115.31 94.9012 115.359Z" fill="#E98862"/>
<path d="M112.251 125.381L106.771 148.201C106.686 148.556 106.683 148.925 106.762 149.282C106.842 149.638 107.001 149.972 107.229 150.259C107.457 150.545 107.748 150.777 108.079 150.936C108.41 151.095 108.773 151.178 109.141 151.178H141.449C141.983 151.178 142.502 151.004 142.927 150.683C143.351 150.362 143.657 149.911 143.799 149.4L150.113 126.581C150.212 126.222 150.227 125.846 150.155 125.481C150.084 125.116 149.928 124.772 149.701 124.476C149.473 124.18 149.18 123.941 148.844 123.776C148.508 123.61 148.139 123.525 147.764 123.524H114.621C114.073 123.525 113.541 123.708 113.111 124.045C112.681 124.382 112.378 124.852 112.251 125.381Z" fill="#EAEAEA"/>
<path d="M95.2689 148.338H134.317C134.505 148.338 134.691 148.374 134.865 148.446C135.039 148.517 135.197 148.622 135.33 148.754C135.463 148.885 135.568 149.042 135.64 149.214C135.712 149.387 135.749 149.571 135.749 149.758C135.749 149.944 135.712 150.129 135.64 150.301C135.568 150.473 135.463 150.63 135.33 150.762C135.197 150.894 135.039 150.998 134.865 151.07C134.691 151.141 134.505 151.178 134.317 151.178H95.2689C95.0809 151.178 94.8947 151.141 94.721 151.07C94.5473 150.998 94.3895 150.894 94.2566 150.762C94.1237 150.63 94.0182 150.473 93.9463 150.301C93.8743 150.129 93.8373 149.944 93.8373 149.758C93.8373 149.381 93.9881 149.02 94.2566 148.754C94.5251 148.487 94.8892 148.338 95.2689 148.338Z" fill="#EAEAEA"/>
<path d="M129.764 140.916C131.875 140.916 133.585 139.219 133.585 137.125C133.585 135.032 131.875 133.335 129.764 133.335C127.654 133.335 125.943 135.032 125.943 137.125C125.943 139.219 127.654 140.916 129.764 140.916Z" fill="white"/>
<path d="M122.406 154.173C120.379 155.413 117.243 156 114.508 156.214L114.354 151.272C115.64 151.236 117.617 151.102 119.553 151.178C120.429 150.47 120.932 150.26 121.83 149.369C122.786 148.421 125.294 147.851 125.768 149.369C126.242 150.887 124.184 153.081 122.406 154.173Z" fill="#E98862"/>
<path d="M435.061 186.614C433.329 186.052 431.551 186.685 429.85 187.966C432.09 182.355 433.015 177.286 429.185 177.057C426.505 176.898 424.452 178.938 422.892 181.837C422.343 176.739 420.928 172.936 417.758 174.197C414.278 175.581 413.748 180.324 414.276 185.287C412.741 182.752 411.092 181.339 409.593 182.825C405.119 187.262 416.1 199.769 416.1 199.769H418.827L420.384 201.444C420.068 202.105 419.896 202.499 419.896 202.499L421.873 206.489C421.873 206.489 442.252 188.949 435.061 186.614Z" fill="#0C8234"/>
<path d="M430.173 215.426H414.739L412.156 197.554H432.757L430.173 215.426Z" fill="#C1D8ED"/>
<path d="M29.8421 285.758C29.8421 285.758 27.6758 206.354 6.89893 205.026C-13.8779 203.698 23.937 290.906 23.937 290.906" fill="#6FBC0C"/>
<path d="M30.7679 280.331C30.7679 280.331 56.6691 223.198 39.4239 211.627C22.1787 200.056 23.0502 281.808 23.0502 281.808" fill="#0C8234"/>
<path d="M36.1884 275.409H12.9012V302H36.1884V275.409Z" fill="#EAEAEA"/>
<path d="M391.328 285.372H383.233V302H391.328V285.372Z" fill="#C1D8ED"/>
<path d="M442.148 285.372H434.052V302H442.148V285.372Z" fill="#C1D8ED"/>
<path d="M449.569 214.928H375.812V296.637H449.569V214.928Z" fill="#C1D8ED"/>
<path d="M429.98 214.928H356.224V296.637H429.98V214.928Z" fill="#DEE8F5"/>
<path d="M371.74 285.372H363.644V302H371.74V285.372Z" fill="#DEE8F5"/>
<path d="M422.559 285.372H414.464V302H422.559V285.372Z" fill="#DEE8F5"/>
<g opacity="0.53">
<path d="M426.012 219.98H360.191V240.704H426.012V219.98Z" fill="#F3F5FD"/>
</g>
<g opacity="0.53">
<path d="M426.012 245.776H360.191V266.5H426.012V245.776Z" fill="#F3F5FD"/>
</g>
<g opacity="0.53">
<path d="M426.012 271.572H360.191V292.296H426.012V271.572Z" fill="#F3F5FD"/>
</g>
<path d="M393.102 233.241C394.716 233.241 396.025 231.943 396.025 230.342C396.025 228.74 394.716 227.442 393.102 227.442C391.487 227.442 390.178 228.74 390.178 230.342C390.178 231.943 391.487 233.241 393.102 233.241Z" fill="white"/>
<path d="M393.102 259.038C394.716 259.038 396.025 257.739 396.025 256.138C396.025 254.536 394.716 253.238 393.102 253.238C391.487 253.238 390.178 254.536 390.178 256.138C390.178 257.739 391.487 259.038 393.102 259.038Z" fill="white"/>
<path d="M393.102 284.834C394.716 284.834 396.025 283.536 396.025 281.934C396.025 280.333 394.716 279.034 393.102 279.034C391.487 279.034 390.178 280.333 390.178 281.934C390.178 283.536 391.487 284.834 393.102 284.834Z" fill="white"/>
</svg>
