<svg width="369" height="353" viewBox="0 0 369 353" fill="none" xmlns="http://www.w3.org/2000/svg">
<path opacity="0.03" d="M58.7291 352.568C20.2729 352.568 -7.63393 315.546 3.44534 278.726C9.71075 257.903 22.1581 237.586 45.8293 225.263C110.606 191.541 104.9 200.788 135.433 144.121C165.967 87.4549 248.722 74.0121 292.085 113.928C353.416 170.385 312.162 215.361 350.974 254.167C351.378 254.572 351.777 254.978 352.171 255.387C387.24 291.794 360.85 352.568 310.298 352.568H58.7291Z" fill="#292A2E"/>
<path d="M222.887 152.728V122.524H78.5209V152.727C78.5224 168.521 83.7036 183.879 93.2703 196.446C102.837 209.014 116.261 218.099 131.486 222.308C133.721 222.935 135.689 224.275 137.091 226.125C138.493 227.975 139.252 230.232 139.252 232.552C139.252 234.873 138.493 237.13 137.091 238.98C135.689 240.83 133.721 242.17 131.486 242.797C116.261 247.006 102.836 256.091 93.2694 268.659C83.7026 281.228 78.5218 296.586 78.5209 312.38V342.585H222.887V312.38C222.885 296.586 217.704 281.229 208.138 268.661C198.571 256.093 185.147 247.009 169.922 242.8C167.687 242.173 165.718 240.832 164.316 238.983C162.913 237.133 162.154 234.876 162.154 232.555C162.154 230.234 162.913 227.976 164.316 226.127C165.718 224.277 167.687 222.937 169.922 222.31C185.147 218.101 198.571 209.016 208.138 196.449C217.704 183.881 222.886 168.523 222.887 152.73" fill="#017FFA"/>
<path opacity="0.8" d="M222.887 152.728V122.524H78.5209V152.727C78.5224 168.521 83.7036 183.879 93.2703 196.446C102.837 209.014 116.261 218.099 131.486 222.308C133.721 222.935 135.689 224.275 137.091 226.125C138.493 227.975 139.252 230.232 139.252 232.552C139.252 234.873 138.493 237.13 137.091 238.98C135.689 240.83 133.721 242.17 131.486 242.797C116.261 247.006 102.836 256.091 93.2694 268.659C83.7026 281.228 78.5218 296.586 78.5209 312.38V342.585H222.887V312.38C222.885 296.586 217.704 281.229 208.138 268.661C198.571 256.093 185.147 247.009 169.922 242.8C167.687 242.173 165.718 240.832 164.316 238.983C162.913 237.133 162.154 234.876 162.154 232.555C162.154 230.234 162.913 227.976 164.316 226.127C165.718 224.277 167.687 222.937 169.922 222.31C185.147 218.101 198.571 209.016 208.138 196.449C217.704 183.881 222.886 168.523 222.887 152.73" fill="white"/>
<path d="M231.274 117.026C231.275 118.462 230.712 119.842 229.707 120.87C228.703 121.897 227.335 122.49 225.899 122.521C225.857 122.524 225.818 122.524 225.775 122.524H75.8778C75.8353 122.524 75.7961 122.524 75.7542 122.521C74.3069 122.489 72.9308 121.887 71.9245 120.847C70.9183 119.806 70.363 118.411 70.3793 116.963C70.3955 115.516 70.982 114.134 72.0114 113.116C73.0409 112.098 74.4302 111.528 75.8778 111.528H225.773C226.496 111.528 227.211 111.67 227.878 111.946C228.545 112.222 229.152 112.627 229.663 113.138C230.173 113.648 230.579 114.254 230.855 114.921C231.132 115.588 231.274 116.304 231.274 117.026Z" fill="#1C1541"/>
<path d="M153.255 291.918V226.637C153.199 224.157 153.959 221.727 155.419 219.721C156.878 217.715 158.955 216.243 161.332 215.531C186.876 208.503 210.64 185.592 211.808 159.275C211.87 157.864 210.63 156.934 209.218 156.934H92.1891C90.7754 156.934 89.5364 157.864 89.5984 159.275C90.7663 185.592 114.531 208.503 140.075 215.531C143.69 216.531 148.154 220.961 148.154 226.8V291.922C148.154 296.619 146.385 300.606 143.064 303.927C140.322 306.669 99.0291 342.584 99.0291 342.584H202.379C202.379 342.584 160.705 306.259 158.41 303.963C155.089 300.645 153.255 296.613 153.255 291.918Z" fill="#FAFAFA"/>
<path d="M231.313 346.645C231.313 348.082 230.751 349.462 229.746 350.489C228.741 351.516 227.374 352.109 225.937 352.14C225.896 352.142 225.856 352.142 225.814 352.142H75.917C75.875 352.142 75.8358 352.142 75.7938 352.14C74.3467 352.107 72.9706 351.506 71.9643 350.465C70.958 349.425 70.4027 348.03 70.4189 346.582C70.4351 345.135 71.0215 343.753 72.0509 342.735C73.0802 341.717 74.4694 341.147 75.917 341.147H225.814C227.273 341.147 228.671 341.726 229.702 342.757C230.733 343.788 231.313 345.187 231.313 346.645Z" fill="#1C1541"/>
<path d="M266.849 337.055C302.242 337.055 330.933 308.367 330.933 272.979C330.933 237.591 302.242 208.904 266.849 208.904C231.456 208.904 202.764 237.591 202.764 272.979C202.764 308.367 231.456 337.055 266.849 337.055Z" fill="white"/>
<path d="M285.543 334.608C251.556 344.912 215.519 325.653 205.211 291.671C194.903 257.688 214.167 221.657 248.154 211.352C282.141 201.048 318.179 220.305 328.485 254.287C338.792 288.27 319.53 324.301 285.543 334.608ZM248.343 211.973C214.699 222.175 195.629 257.843 205.834 291.482C216.038 325.121 251.71 344.188 285.354 333.985C318.998 323.782 338.067 288.115 327.864 254.476C317.66 220.837 281.987 201.77 248.343 211.973Z" fill="white"/>
<path d="M266.849 329.392C298.009 329.392 323.27 304.135 323.27 272.979C323.27 241.823 298.009 216.566 266.849 216.566C235.688 216.566 210.427 241.823 210.427 272.979C210.427 304.135 235.688 329.392 266.849 329.392Z" fill="#FFC239"/>
<path opacity="0.4" d="M266.979 323.88C295.229 323.88 318.131 300.979 318.131 272.728C318.131 244.477 295.229 221.576 266.979 221.576C238.728 221.576 215.827 244.477 215.827 272.728C215.827 300.979 238.728 323.88 266.979 323.88Z" fill="white"/>
<path d="M266.848 276.371C268.722 276.371 270.241 274.853 270.241 272.979C270.241 271.106 268.722 269.587 266.848 269.587C264.975 269.587 263.456 271.106 263.456 272.979C263.456 274.853 264.975 276.371 266.848 276.371Z" fill="white"/>
<path d="M265.582 244.852L265.582 244.851C265.582 244.509 265.72 244.183 265.961 243.945C266.202 243.706 266.526 243.574 266.862 243.574C267.198 243.574 267.523 243.706 267.764 243.945C268.005 244.184 268.142 244.509 268.142 244.851C268.142 244.851 268.142 244.851 268.142 244.851C268.142 244.851 268.142 244.851 268.142 244.851L268.154 272.106L303.383 290.753L303.383 290.753C303.605 290.871 303.789 291.052 303.91 291.276L303.91 291.276C304.031 291.499 304.082 291.754 304.057 292.007C304.057 292.007 304.057 292.007 304.057 292.007L303.062 291.908C303.056 291.963 303.035 292.015 303 292.057C302.964 292.099 302.917 292.13 302.865 292.146L265.582 244.852ZM265.582 244.852L265.595 272.875C265.595 272.875 265.595 272.875 265.595 272.875C265.595 273.108 265.659 273.337 265.779 273.535C265.9 273.734 266.071 273.895 266.275 274.002C266.275 274.002 266.275 274.003 266.275 274.003C266.275 274.003 266.276 274.003 266.276 274.003L302.181 293.007C302.181 293.008 302.182 293.008 302.182 293.008C302.33 293.087 302.492 293.135 302.658 293.152L302.658 293.152C302.824 293.168 302.992 293.152 303.152 293.104L265.582 244.852ZM303.122 291.243L303.119 291.241C303.12 291.242 303.121 291.242 303.122 291.243Z" fill="white" stroke="white" stroke-width="2"/>
<path d="M98.6134 195.757C98.6134 195.757 97.2818 202.66 90.8181 203.045C84.3543 203.429 85.7561 208.578 85.7561 208.578H110.457V196.238L98.6134 195.757Z" fill="#367CFF"/>
<path d="M112.707 174.994C112.707 174.994 114.559 181.776 108.929 184.973C103.299 188.171 106.831 192.173 106.831 192.173L128.994 181.271L123.547 170.199L112.707 174.994Z" fill="#367CFF"/>
<path d="M110.362 179.478L93.661 116.472C92.3933 109.512 94.2995 106.495 97.24 103.564C102.403 98.4146 123.797 87.455 123.797 87.455L149.464 87.3853C156.27 87.3853 162.962 94.0952 162.962 100.9C162.962 107.704 156.043 113.475 149.236 113.475L117.629 116.63L126.197 174.321L110.362 179.478Z" fill="#191047"/>
<path d="M126.196 174.318L122.824 151.607L105.736 162.029L110.362 179.478L126.196 174.318Z" fill="#191047"/>
<path d="M130.07 100.205C130.07 100.205 119.28 102.609 108.595 113.294C102.116 119.772 102.647 131.494 103.619 154.041L114.232 138.367L125.873 117.375L130.07 100.205Z" fill="#191047"/>
<path d="M167.428 87.3775L149.997 87.2954L149.99 87.5234H144.712C144.712 87.5234 131.492 99.6876 120.847 107.353C113.105 112.928 108.382 118.243 107.973 124.036C106.977 138.158 95.7401 198.386 95.7401 198.386L112.651 200.946L127.491 128.969C127.491 128.969 150.697 118.273 156.064 114.551C161.119 111.046 164.689 109.691 166.361 105.866C169.25 99.2604 167.428 87.3775 167.428 87.3775Z" fill="#191047"/>
<path d="M147.872 91.7679L119.595 92.1422L135.457 101.615L148.658 94.8001C148.977 94.6294 149.228 94.3567 149.373 94.0258C149.518 93.6949 149.548 93.3249 149.457 92.9753C149.366 92.6256 149.161 92.3165 148.874 92.0976C148.586 91.8786 148.234 91.7625 147.872 91.7679Z" fill="#EEEEEE"/>
<path d="M119.757 41.0459L111.76 66.9575L95.7399 87.9292L105.098 98.6699L124.157 77.4009C125.035 76.7069 125.722 75.8005 126.153 74.7673L126.45 74.0491L137.457 47.418L119.757 41.0459Z" fill="#367CFF"/>
<path d="M132.078 13.5402C132.078 13.5402 128.856 11.108 128.057 5.5097C127.439 1.17484 131.438 3.98313 131.438 3.98313C131.438 3.98313 131.023 0.85794 133.3 1.168C135.576 1.47805 136.853 4.76146 136.853 4.76146" fill="#501800"/>
<path d="M145.072 1.53369C145.072 1.53369 156.373 2.74519 152.287 18.0556L151.287 18.1226L149.258 18.2594" fill="#501800"/>
<path d="M133.971 34.0455C134.021 34.0391 134.572 43.1863 145.2 42.3897C152.557 41.8384 155.18 34.0337 155.349 34.0337C154.556 33.865 153.576 33.6092 153.186 33.5212C152.337 33.3242 151.568 32.8733 150.981 32.2286C150.395 31.5839 150.018 30.776 149.902 29.9122C149.687 28.6159 150.052 21.983 149.94 20.6711L138.646 23.1913C138.804 25.9617 139.908 32.3844 136.037 33.5212C135.393 33.7086 134.7 33.8814 133.971 34.0455Z" fill="#FFA07B"/>
<path opacity="0.52" d="M138.489 30.8957C138.666 30.3256 138.78 29.7378 138.829 29.1429C138.953 27.7855 138.928 26.4186 138.755 25.0666C141.05 24.7564 143.213 23.8085 144.996 22.3308C145.206 23.106 146.359 26.4888 146.04 27.2247C145.435 28.6177 142.599 30.8957 138.489 30.8957Z" fill="#501800"/>
<path d="M140.819 29.085C145.275 28.6856 150.607 25.8709 150.684 19.8239L150.753 14.3673C150.83 8.32031 147.716 3.37855 142.022 3.30514C136.327 3.23173 132.008 8.08093 131.932 14.1293L131.901 16.5459C131.905 17.3756 131.966 18.204 132.083 19.0255C132.375 21.1981 132.828 24.5025 134.303 26.7372C135.694 28.8451 137.972 29.3403 140.819 29.085Z" fill="#FFA07B"/>
<path opacity="0.52" d="M138.752 23.5578C137.832 23.5995 136.916 23.4244 136.076 23.0466C136.043 23.0307 136.017 23.0024 136.004 22.9678C135.991 22.9331 135.991 22.8947 136.006 22.8605C136.021 22.8264 136.048 22.7993 136.082 22.7847C136.116 22.7702 136.154 22.7695 136.189 22.7826C137.998 23.5537 139.64 23.4406 140.938 22.4561C140.964 22.4354 140.991 22.4161 141.019 22.3982C141.052 22.3793 141.092 22.3742 141.129 22.3841C141.165 22.3941 141.197 22.4183 141.216 22.4514C141.235 22.4844 141.24 22.5237 141.23 22.5605C141.22 22.5973 141.196 22.6287 141.163 22.6476C141.152 22.654 141.135 22.6673 141.112 22.685C140.429 23.2044 139.608 23.5083 138.752 23.5578Z" fill="#501800"/>
<path opacity="0.52" d="M138.794 24.9203C138.628 24.9304 138.462 24.9264 138.296 24.9084C138.259 24.9044 138.224 24.8856 138.2 24.8559C138.176 24.8263 138.165 24.7884 138.169 24.7504C138.173 24.7125 138.191 24.6778 138.221 24.6538C138.251 24.6298 138.289 24.6186 138.327 24.6225C138.587 24.6705 138.855 24.6623 139.112 24.5985C139.369 24.5347 139.609 24.4169 139.817 24.2528C139.844 24.2258 139.88 24.2106 139.918 24.2106C139.956 24.2105 139.993 24.2256 140.02 24.2525C140.047 24.2794 140.062 24.316 140.062 24.354C140.062 24.3921 140.047 24.4287 140.02 24.4557C139.678 24.7475 139.244 24.9117 138.794 24.9203Z" fill="#501800"/>
<path d="M133.812 17.7064C134.199 17.7064 134.513 17.3924 134.513 17.0051C134.513 16.6178 134.199 16.3038 133.812 16.3038C133.424 16.3038 133.11 16.6178 133.11 17.0051C133.11 17.3924 133.424 17.7064 133.812 17.7064Z" fill="#501800"/>
<path d="M140.665 17.2763C141.052 17.2763 141.366 16.9624 141.366 16.5751C141.366 16.1877 141.052 15.8738 140.665 15.8738C140.278 15.8738 139.964 16.1877 139.964 16.5751C139.964 16.9624 140.278 17.2763 140.665 17.2763Z" fill="#501800"/>
<path d="M150.307 21.6614C152.038 21.6837 153.464 19.8503 153.486 18.1199C153.508 16.3895 152.118 15.4179 150.385 15.3955L149.479 16.5459L148.818 21.645L150.307 21.6614Z" fill="#FFA07B"/>
<path d="M148.585 18.8814C148.585 18.8814 148.001 10.3248 145.406 9.79632C143.677 9.44432 139.487 11.8938 135.604 11.1551C133.906 10.8314 132.294 11.2518 132.13 12.0538C132.065 12.373 131.007 7.8074 133.666 4.34343C135.784 1.58575 142.713 0.806964 145.866 1.7116C154.595 4.21531 150.743 15.7708 150.743 15.7708L150.354 18.7209L148.585 18.8814Z" fill="#501800"/>
<g opacity="0.52">
<path d="M137.705 21.5383H137.694C137.137 21.5328 136.202 21.4612 136.206 21.044C136.21 20.6984 137.193 16.9768 137.305 16.5537C137.318 16.5206 137.342 16.4934 137.374 16.4772C137.405 16.461 137.441 16.4571 137.475 16.4662C137.509 16.4753 137.539 16.4968 137.558 16.5264C137.577 16.5561 137.585 16.5918 137.579 16.6266C137.142 18.2749 136.491 20.8119 136.488 21.0468C136.868 21.2127 137.282 21.2839 137.696 21.2542C137.733 21.2531 137.77 21.267 137.797 21.2929C137.825 21.3187 137.841 21.3543 137.842 21.3919C137.843 21.4295 137.829 21.466 137.803 21.4934C137.777 21.5208 137.742 21.5367 137.704 21.5378L137.705 21.5383Z" fill="#501800"/>
</g>
<path d="M135.803 13.2023C135.217 13.0411 134.598 13.0411 134.012 13.2023C133.724 13.2797 133.449 13.3999 133.197 13.5588C132.948 13.7148 132.719 13.9013 132.517 14.1142C132.479 14.1522 132.458 14.2031 132.457 14.2565C132.456 14.3098 132.476 14.3614 132.512 14.4005C132.548 14.4396 132.598 14.4632 132.652 14.4664C132.705 14.4695 132.757 14.452 132.798 14.4174L132.81 14.4065C132.998 14.2328 133.206 14.0835 133.431 13.9619C133.651 13.8413 133.889 13.7546 134.135 13.7048C134.62 13.6033 135.124 13.6315 135.594 13.7864L135.614 13.7932C135.692 13.8207 135.778 13.8161 135.852 13.7806C135.926 13.7451 135.984 13.6815 136.011 13.6038C136.038 13.5261 136.034 13.4406 135.998 13.3663C135.963 13.2919 135.899 13.2347 135.822 13.2073L135.803 13.2023Z" fill="#501800"/>
<path d="M139.953 13.5544C140.399 13.338 140.894 13.2436 141.389 13.2808C141.64 13.297 141.887 13.3513 142.122 13.4418C142.36 13.5322 142.586 13.6523 142.795 13.7992L142.809 13.8079C142.854 13.8371 142.908 13.8478 142.96 13.8378C143.013 13.8278 143.059 13.7978 143.09 13.7542C143.121 13.7106 143.134 13.6567 143.126 13.6039C143.118 13.5511 143.09 13.5034 143.047 13.471C142.818 13.2866 142.567 13.1321 142.299 13.0109C142.028 12.887 141.74 12.8044 141.444 12.766C140.842 12.6841 140.228 12.7663 139.669 13.004C139.593 13.0368 139.534 13.0983 139.504 13.1749C139.473 13.2515 139.475 13.337 139.508 13.4126C139.54 13.4882 139.602 13.5476 139.678 13.5779C139.755 13.6082 139.841 13.6068 139.916 13.574L139.934 13.5658L139.953 13.5544Z" fill="#501800"/>
<path d="M139.669 4.38258C140.063 2.49735 139.344 0.752127 138.063 0.484528C136.782 0.216928 135.424 1.52828 135.03 3.41352C134.636 5.29875 135.355 7.04396 136.636 7.31156C137.917 7.57916 139.275 6.26782 139.669 4.38258Z" fill="#501800"/>
<path d="M120.767 54.1476C121.102 58.0794 123.475 82.6117 123.797 87.455H167.408C167.659 83.0869 168.784 63.9856 169.734 55.443C170.641 47.2917 171.913 43.582 170.868 41.0491C169.025 36.5807 163.161 34.5863 159.189 34.0487C156.764 33.7204 153.116 33.4851 153.116 33.4851C153.116 33.4851 152.807 39.7318 145.443 40.0793C135.418 40.5526 136.087 33.4851 136.038 33.4851C134.414 33.4851 125.573 34.6656 123.363 36.1065C122.102 36.8727 121.063 37.9538 120.348 39.2434C119.632 40.5329 119.265 41.9865 119.282 43.4612C119.24 46.3944 120.387 49.6878 120.767 54.1476Z" fill="#367CFF"/>
<path d="M122.978 77.788C122.947 77.7878 122.917 77.7761 122.894 77.7551C122.872 77.7341 122.857 77.7053 122.855 77.6744L121.202 58.7797C121.201 58.7633 121.202 58.7467 121.207 58.7309C121.212 58.715 121.22 58.7003 121.23 58.6876C121.241 58.6749 121.253 58.6643 121.268 58.6567C121.283 58.649 121.299 58.6443 121.315 58.6429C121.332 58.6409 121.348 58.6422 121.364 58.6469C121.38 58.6515 121.395 58.6594 121.408 58.67C121.421 58.6806 121.431 58.6936 121.439 58.7084C121.446 58.7232 121.451 58.7394 121.452 58.756L123.105 77.6507C123.106 77.667 123.104 77.6834 123.099 77.6989C123.094 77.7145 123.086 77.729 123.076 77.7414C123.065 77.7539 123.053 77.7642 123.038 77.7718C123.024 77.7793 123.008 77.7838 122.992 77.7852L122.978 77.788Z" fill="#0C0C0C"/>
<path d="M126.14 88.7636L132.128 83.9057L131.121 84.1907C130.794 84.2761 130.447 84.2342 130.149 84.0734C129.852 83.9126 129.626 83.6449 129.519 83.3244C129.469 83.157 129.454 82.9813 129.474 82.8079C129.495 82.6346 129.55 82.4672 129.637 82.316C129.725 82.1648 129.842 82.0329 129.982 81.9285C130.122 81.824 130.281 81.7492 130.451 81.7085L143.031 78.6489L144.113 82.6559C144.449 83.9002 144.406 85.2164 143.989 86.4358C143.572 87.6553 142.8 88.7224 141.772 89.5004L137.111 93.0173C136.872 93.2048 136.576 93.3041 136.273 93.2983C135.969 93.2926 135.677 93.1822 135.446 92.9858C135.241 92.8041 135.099 92.5616 135.041 92.2937C134.984 92.0257 135.014 91.7465 135.126 91.4967C135.112 91.4926 135.098 91.4856 135.086 91.476C135.075 91.4665 135.065 91.4547 135.058 91.4413C135.051 91.4279 135.047 91.4132 135.045 91.3981C135.044 91.383 135.046 91.3678 135.051 91.3535L134.192 92.0042C133.927 92.2137 133.592 92.3146 133.255 92.2866C132.918 92.2586 132.605 92.1037 132.377 91.8532C132.182 91.6224 132.075 91.3302 132.074 91.0279C132.073 90.7257 132.179 90.4328 132.372 90.2008C132.359 90.1986 132.346 90.1941 132.334 90.1876L131.981 90.4548C131.742 90.6421 131.446 90.7413 131.143 90.7355C130.84 90.7296 130.548 90.6192 130.316 90.4229C130.067 90.2024 129.913 89.8941 129.886 89.5625C129.86 89.2309 129.963 88.9019 130.173 88.6446C130.169 88.6372 130.165 88.6294 130.161 88.6213L127.668 90.644C127.544 90.7443 127.402 90.8193 127.249 90.8646C127.097 90.91 126.937 90.9249 126.778 90.9084C126.62 90.8919 126.466 90.8444 126.326 90.7686C126.186 90.6928 126.063 90.5902 125.962 90.4666C125.862 90.3431 125.787 90.2009 125.742 90.0483C125.696 89.8958 125.682 89.7358 125.698 89.5775C125.715 89.4192 125.762 89.2656 125.838 89.1257C125.914 88.9857 126.016 88.8621 126.14 88.7618L126.14 88.7636Z" fill="#FFA07B"/>
<path opacity="0.2" d="M130.314 88.6942C130.327 88.6895 130.34 88.6824 130.35 88.6733L132.75 86.6807C132.773 86.66 132.788 86.6308 132.791 86.5994C132.793 86.568 132.783 86.5369 132.763 86.5126C132.743 86.4884 132.714 86.4729 132.683 86.4696C132.652 86.4662 132.62 86.4752 132.596 86.4947L130.196 88.4877C130.174 88.5059 130.159 88.5311 130.154 88.5591C130.149 88.587 130.154 88.6158 130.168 88.6404C130.182 88.6651 130.205 88.684 130.231 88.6938C130.258 88.7036 130.287 88.7038 130.314 88.6942Z" fill="#0A0A0A"/>
<path opacity="0.2" d="M132.429 90.1999C132.441 90.1951 132.453 90.1883 132.464 90.1798L134.362 88.6295C134.385 88.6088 134.4 88.5799 134.402 88.5489C134.404 88.5179 134.395 88.4872 134.375 88.4631C134.355 88.439 134.327 88.4234 134.296 88.4196C134.266 88.4158 134.234 88.424 134.209 88.4426L132.311 89.9929C132.29 90.011 132.275 90.0362 132.27 90.0641C132.265 90.0919 132.269 90.1207 132.283 90.1454C132.297 90.1701 132.32 90.1891 132.346 90.199C132.373 90.209 132.402 90.2093 132.429 90.1999Z" fill="#0A0A0A"/>
<path opacity="0.2" d="M135.205 91.5002C135.219 91.4953 135.232 91.4879 135.243 91.4784L136.123 90.7242C136.134 90.7139 136.144 90.7013 136.151 90.6871C136.159 90.673 136.163 90.6576 136.164 90.6419C136.165 90.6261 136.163 90.6103 136.158 90.5952C136.153 90.5802 136.145 90.5663 136.135 90.5543C136.125 90.5424 136.112 90.5325 136.098 90.5254C136.084 90.5183 136.068 90.5141 136.053 90.5129C136.037 90.5117 136.021 90.5137 136.006 90.5187C135.991 90.5236 135.977 90.5315 135.965 90.5418L135.086 91.2955C135.065 91.314 135.051 91.3392 135.046 91.367C135.041 91.3948 135.047 91.4233 135.061 91.4476C135.075 91.4719 135.097 91.4905 135.124 91.5002C135.15 91.5099 135.179 91.5101 135.205 91.5007V91.5002Z" fill="#0A0A0A"/>
<path d="M179.066 76.8656L179.02 76.6614L171.061 41.4608L155.313 45.0201L161.526 72.4984L136.636 78.612L139.699 92.6557L172.866 86.3296C172.942 86.3146 173.049 86.2923 173.127 86.2754C174.135 86.0477 175.088 85.6236 175.932 85.0274C176.776 84.4312 177.494 83.6746 178.046 82.8008C178.597 81.9269 178.971 80.953 179.146 79.9346C179.321 78.9163 179.294 77.8734 179.066 76.8656Z" fill="#367CFF"/>
<path d="M136.515 78.6376C136.508 78.6062 136.514 78.5734 136.531 78.5462C136.548 78.519 136.575 78.4995 136.606 78.4917L161.383 72.4077L157.354 54.6159C157.347 54.5838 157.353 54.5502 157.37 54.5223C157.388 54.4945 157.416 54.4748 157.448 54.4675C157.48 54.4603 157.514 54.4661 157.542 54.4836C157.57 54.5012 157.589 54.5291 157.596 54.5612L161.652 72.4716C161.66 72.5033 161.654 72.5366 161.637 72.5643C161.62 72.5921 161.593 72.612 161.561 72.6197L136.782 78.7041C136.782 78.7041 136.948 79.4282 136.995 79.6712C136.997 79.7024 136.988 79.7334 136.968 79.7576C136.948 79.7817 136.92 79.7973 136.889 79.801C136.857 79.8046 136.826 79.7961 136.801 79.7772C136.776 79.7583 136.76 79.7304 136.755 79.6995C136.698 79.4332 136.515 78.6376 136.515 78.6376Z" fill="#0C0C0C"/>
<path d="M137.485 98.2453L127.916 68.8355C127.748 68.3187 127.421 67.8683 126.981 67.5489C126.541 67.2294 126.011 67.0573 125.468 67.0573H86.4825C86.0761 67.0572 85.6755 67.1533 85.3134 67.3378C84.9513 67.5222 84.638 67.7898 84.3991 68.1186C84.1603 68.4473 84.0027 68.828 83.9393 69.2293C83.8758 69.6307 83.9083 70.0414 84.0341 70.4277L93.6035 99.8375C93.7714 100.354 94.0988 100.805 94.5387 101.124C94.9785 101.444 95.5082 101.616 96.0519 101.616H135.038C135.444 101.616 135.844 101.519 136.206 101.335C136.568 101.15 136.882 100.883 137.12 100.554C137.359 100.225 137.517 99.8448 137.58 99.4435C137.644 99.0423 137.611 98.6317 137.485 98.2453Z" fill="#EAEAEA"/>
<path d="M109.637 88.4243C111.895 88.4243 113.726 86.594 113.726 84.3361C113.726 82.0783 111.895 80.2479 109.637 80.2479C107.379 80.2479 105.548 82.0783 105.548 84.3361C105.548 86.594 107.379 88.4243 109.637 88.4243Z" fill="white"/>
</svg>
