<svg width="470" height="364" viewBox="0 0 470 364" fill="none" xmlns="http://www.w3.org/2000/svg">
<path d="M470 364H0.16748C5.35052 350.03 11.734 338.177 25.2264 334.662C44.9647 329.526 65.853 343.65 85.5475 338.339C96.7361 335.325 105.545 326.542 114.801 319.249C149.722 291.73 197.576 283.598 238.898 298.162C260.497 305.772 280.178 319.08 302.304 324.738C330.916 332.057 360.836 325.987 390.259 324.987C418.915 324.014 459.973 336.355 470 364Z" fill="#F3F5FD"/>
<path d="M349.132 0H0.16748V252.717H349.132V0Z" fill="#F3F5FD"/>
<path d="M349.132 0H0.16748V20.8175H349.132V0Z" fill="#F3F5FD"/>
<path d="M337.444 15.6321C340.329 15.6321 342.667 13.2936 342.667 10.409C342.667 7.52439 340.329 5.18594 337.444 5.18594C334.56 5.18594 332.221 7.52439 332.221 10.409C332.221 13.2936 334.56 15.6321 337.444 15.6321Z" fill="white"/>
<path d="M293.19 45.8029H244.98V208.71H293.19V45.8029Z" fill="#6FBC0C"/>
<path d="M244.98 193.075H23.9529V207.834H244.98V193.075Z" fill="#EFEFEF"/>
<path d="M244.98 146.573H23.9529V161.331H244.98V146.573Z" fill="#EFEFEF"/>
<path d="M244.98 99.2689H23.9529V114.027H244.98V99.2689Z" fill="#EFEFEF"/>
<path d="M244.98 177.189H23.9529V191.948H244.98V177.189Z" fill="#EFEFEF"/>
<path d="M244.98 130.687H23.9529V145.446H244.98V130.687Z" fill="#EFEFEF"/>
<path d="M244.98 83.3832H23.9529V98.1416H244.98V83.3832Z" fill="#EFEFEF"/>
<path d="M244.98 162.758H23.9529V177.516H244.98V162.758Z" fill="#EFEFEF"/>
<path d="M244.98 116.255H23.9529V131.014H244.98V116.255Z" fill="#EFEFEF"/>
<path d="M244.98 68.9515H23.9529V83.7099H244.98V68.9515Z" fill="#EFEFEF"/>
<path d="M244.98 52.1145H23.9529V66.8729H244.98V52.1145Z" fill="#EFEFEF"/>
<path d="M293.19 38.8336H23.9441V52.7722H293.19V38.8336Z" fill="white"/>
<path fill-rule="evenodd" clip-rule="evenodd" d="M22.8164 38.8336H25.0718V207.582H292.062V38.8336H294.318V209.838H22.8164V38.8336Z" fill="white"/>
<path fill-rule="evenodd" clip-rule="evenodd" d="M67.74 208.71V45.8029H69.9953V208.71H67.74Z" fill="white"/>
<path fill-rule="evenodd" clip-rule="evenodd" d="M23.9531 66.403H293.19V68.6583H23.9531V66.403Z" fill="white"/>
<path fill-rule="evenodd" clip-rule="evenodd" d="M23.9531 82.0817H293.19V84.337H23.9531V82.0817Z" fill="white"/>
<path fill-rule="evenodd" clip-rule="evenodd" d="M23.9531 97.761H293.19V100.016H23.9531V97.761Z" fill="white"/>
<path fill-rule="evenodd" clip-rule="evenodd" d="M23.9531 113.44H293.19V115.695H23.9531V113.44Z" fill="white"/>
<path fill-rule="evenodd" clip-rule="evenodd" d="M23.9531 129.119H293.19V131.374H23.9531V129.119Z" fill="white"/>
<path fill-rule="evenodd" clip-rule="evenodd" d="M23.9531 144.798H293.19V147.053H23.9531V144.798Z" fill="white"/>
<path fill-rule="evenodd" clip-rule="evenodd" d="M23.9531 160.477H293.19V162.732H23.9531V160.477Z" fill="white"/>
<path fill-rule="evenodd" clip-rule="evenodd" d="M23.9531 176.156H293.19V178.411H23.9531V176.156Z" fill="white"/>
<path fill-rule="evenodd" clip-rule="evenodd" d="M23.9531 191.835H293.19V194.09H23.9531V191.835Z" fill="white"/>
<path fill-rule="evenodd" clip-rule="evenodd" d="M194.344 208.71V45.8029H196.6V208.71H194.344Z" fill="white"/>
<path fill-rule="evenodd" clip-rule="evenodd" d="M243.853 208.71V45.8029H246.108V208.71H243.853Z" fill="white"/>
<path d="M363.456 125.951C378.816 125.951 391.268 113.499 391.268 98.1385C391.268 82.778 378.816 70.3259 363.456 70.3259C348.095 70.3259 335.643 82.778 335.643 98.1385C335.643 113.499 348.095 125.951 363.456 125.951Z" fill="#FFC239"/>
<g opacity="0.29">
<path d="M363.456 116.168C373.413 116.168 381.485 108.096 381.485 98.1385C381.485 88.1811 373.413 80.1089 363.456 80.1089C353.498 80.1089 345.426 88.1811 345.426 98.1385C345.426 108.096 353.498 116.168 363.456 116.168Z" fill="white"/>
</g>
<path d="M357.554 104.579L359.236 101.97C360.569 102.992 361.735 103.513 362.975 103.513C364.462 103.513 365.115 102.895 365.115 101.703C365.115 99.0061 358.193 99.0532 358.193 94.3207C358.193 91.2788 360.3 89.3409 363.624 89.3409C364.567 89.3271 365.503 89.519 366.365 89.9033C367.227 90.2875 367.995 90.8548 368.616 91.5659L366.687 93.7751C365.732 92.9082 364.925 92.4519 363.83 92.4519C362.568 92.4519 361.884 92.9604 361.884 94.1375C361.884 96.6384 368.807 96.4204 368.807 101.433C368.807 104.444 366.814 106.623 362.975 106.623C360.988 106.579 359.076 105.857 357.554 104.579ZM362.167 86.771H364.725V90.5478H362.167V86.771ZM362.167 105.05H364.725V109.194H362.167V105.05Z" fill="white"/>
<path d="M333.552 166.85C341.686 164.929 346.724 156.778 344.803 148.644C342.883 140.509 334.732 135.472 326.598 137.392C318.463 139.312 313.425 147.463 315.346 155.598C317.266 163.732 325.417 168.77 333.552 166.85Z" fill="#C1D8ED"/>
<path d="M320.049 148.314C320.049 146.015 321.556 144.235 324.048 144.235C326.52 144.235 328.046 146.033 328.046 148.314C328.046 150.576 326.54 152.43 324.048 152.43C321.556 152.43 320.049 150.579 320.049 148.314ZM325.123 148.314C325.123 147.517 324.801 146.887 324.048 146.887C323.313 146.887 322.954 147.536 322.954 148.314C322.954 149.112 323.295 149.779 324.048 149.779C324.802 149.779 325.123 149.112 325.123 148.314ZM333.551 144.948C333.789 144.926 334.029 144.969 334.245 145.072C334.461 145.174 334.645 145.333 334.778 145.532C334.912 145.73 334.989 145.961 335.002 146.2C335.015 146.439 334.964 146.676 334.853 146.888L327.774 158.856C327.636 159.075 327.443 159.255 327.215 159.378C326.987 159.501 326.731 159.563 326.473 159.558C326.235 159.58 325.995 159.537 325.779 159.435C325.563 159.332 325.379 159.173 325.246 158.975C325.113 158.776 325.036 158.545 325.022 158.307C325.009 158.068 325.061 157.83 325.171 157.618L332.251 145.651C332.389 145.432 332.581 145.252 332.809 145.129C333.036 145.006 333.292 144.944 333.551 144.948H333.551ZM332.083 155.916C332.083 153.617 333.608 151.819 336.1 151.819C338.572 151.819 340.099 153.617 340.099 155.916C340.099 158.178 338.574 160.014 336.1 160.014C333.59 160.012 332.083 158.177 332.083 155.916ZM337.176 155.916C337.176 155.119 336.835 154.47 336.1 154.47C335.347 154.47 335.006 155.119 335.006 155.916C335.006 156.695 335.347 157.363 336.1 157.363C336.853 157.363 337.176 156.693 337.176 155.916Z" fill="white"/>
<path d="M415.352 276.083L412.092 276.94L434.96 363.881L438.22 363.024L415.352 276.083Z" fill="#EFEFEF"/>
<path d="M374.89 276.253L361.249 363.201L364.58 363.724L378.22 276.775L374.89 276.253Z" fill="#EFEFEF"/>
<path d="M418.412 193.112C418.412 193.112 446.261 191.352 446.261 215.684C446.261 240.015 442.159 274.019 421.637 277.83C401.114 281.641 370.799 280.492 363.76 279.299C355.113 277.833 351.343 257.774 362.861 256.432C395.549 252.623 379.717 195.752 418.412 193.112Z" fill="#EFEFEF"/>
<path d="M317.338 224.913C317.482 224.909 352.427 224.983 352.496 224.983C357.398 224.983 359.295 227.822 359.295 227.822V229.353H311.516V227.823C313.673 226.36 315.638 224.868 317.338 224.913Z" fill="#DEE8F5"/>
<path d="M323.997 228.201C323.997 228.201 321.476 224.582 317.34 224.915C316.218 224.956 315.117 225.237 314.113 225.739C313.108 226.241 312.223 226.952 311.516 227.824V229.355H337.523V227.824C337.523 227.824 335.63 224.984 330.728 224.984C325.826 224.984 323.997 228.201 323.997 228.201Z" fill="#C1D8ED"/>
<path d="M337.524 229.355H359.294V227.825H337.524V229.355Z" fill="#C1D8ED"/>
<path d="M365.177 346.624L353.412 347.531L354.472 361.273L366.236 360.366L365.177 346.624Z" fill="#FFAC89"/>
<path d="M339.522 363.35C338.91 363.347 338.324 363.102 337.893 362.667C337.462 362.232 337.222 361.644 337.224 361.032C337.224 360.976 337.224 360.92 337.231 360.864C337.266 360.425 337.424 360.006 337.689 359.654C337.953 359.303 338.313 359.035 338.725 358.881L352.458 354.281C352.724 354.193 353.006 354.163 353.285 354.194C353.563 354.225 353.832 354.316 354.072 354.461C355.96 355.77 358.219 356.44 360.516 356.371C362.305 356.244 364.022 355.616 365.471 354.56C365.599 354.456 365.753 354.389 365.917 354.369C366.08 354.349 366.246 354.376 366.395 354.447C366.544 354.518 366.67 354.629 366.758 354.769C366.845 354.908 366.892 355.069 366.892 355.234V361.951C366.892 362.35 366.733 362.733 366.451 363.015C366.169 363.297 365.786 363.455 365.387 363.455H365.381L339.522 363.35Z" fill="#017FFA"/>
<path d="M306.668 346.098L304.357 359.841L315.992 361.798L318.304 348.055L306.668 346.098Z" fill="#FFAC89"/>
<path d="M300.658 349.111L326.565 249.445C327.144 247.218 328.445 245.246 330.265 243.838C332.085 242.431 334.321 241.666 336.622 241.666H393.397V241.702H425.203V251.45C425.203 254.26 424.65 257.043 423.575 259.639C422.499 262.235 420.923 264.594 418.936 266.582C416.949 268.569 414.59 270.145 411.994 271.221C409.397 272.296 406.615 272.85 403.804 272.85H388.291V272.911H361.21L368.667 352.197L347.969 354.141L340.758 277.475L320.779 354.338L300.658 349.111Z" fill="#262626"/>
<path d="M291.031 363.35C290.419 363.347 289.833 363.101 289.402 362.666C288.971 362.231 288.731 361.643 288.733 361.031C288.733 360.975 288.733 360.919 288.741 360.862C288.775 360.424 288.934 360.004 289.199 359.653C289.463 359.302 289.823 359.034 290.235 358.88L303.968 354.28C304.234 354.191 304.516 354.162 304.795 354.193C305.073 354.224 305.342 354.315 305.582 354.459C307.47 355.769 309.728 356.439 312.025 356.37C313.814 356.243 315.531 355.615 316.981 354.559C317.108 354.455 317.263 354.389 317.426 354.369C317.59 354.349 317.756 354.376 317.904 354.446C318.053 354.517 318.179 354.628 318.267 354.768C318.355 354.907 318.401 355.068 318.401 355.233V361.951C318.401 362.35 318.242 362.733 317.96 363.015C317.678 363.297 317.295 363.455 316.896 363.455H316.888L291.031 363.35Z" fill="#017FFA"/>
<path d="M343.913 194.067C343.913 194.067 343.829 187.318 339.005 187.669C335.962 187.891 321.503 187.22 321.288 188.537C320.755 191.796 333.981 192.592 335.181 195.629L343.913 194.067Z" fill="#FFAC89"/>
<path d="M340.716 187.886C340.716 187.886 334.002 185.695 332.352 186.088C330.891 186.436 333.936 188.813 333.936 188.813L340.716 187.886Z" fill="#FFAC89"/>
<path d="M357.784 229.368H378.193C376.988 235.85 375.459 238.574 377.037 242.199C379.392 247.61 425.65 249.857 426.268 240.339C426.661 234.282 421.323 228.99 421.323 217.191C421.323 205.392 432.184 190.311 423.335 181.462C420.773 178.9 416.334 177.237 410.929 177.231C410.524 180.383 391.382 180.394 391.236 177.304C390.505 177.315 389.938 177.332 389.584 177.343C382.987 177.628 379.755 180.471 378.335 184.715L363.334 211.566L344.153 189.987L333.829 195.792L357.783 223.68L357.784 229.368ZM379.318 214.943C379.326 215.696 379.324 216.414 379.318 217.116H374.269L378.933 208.767C379.143 210.881 379.297 212.958 379.32 214.943H379.318Z" fill="#017FFA"/>
<path d="M391.235 177.304C391.381 180.394 393.067 184.94 398.247 185.277C405.164 185.738 410.524 180.383 410.928 177.231H410.906C404.107 177.231 395.207 177.242 391.235 177.304Z" fill="#FFAC89"/>
<path d="M349.487 226.424C350.582 227.284 355.325 227.554 357.785 227.638V218.519C356.532 217.845 354.97 216.974 353.807 216.232C352.195 215.198 351.464 214.9 351.06 215.013H351.054C350.958 215.041 350.873 215.095 350.807 215.171C350.753 215.231 350.711 215.301 350.683 215.378C350.419 216.092 351.627 217.165 352.296 217.693L352.302 217.699C352.543 217.89 352.717 218.014 352.717 218.014L351.29 218.671L351.285 218.677L350.037 219.255L350.021 219.261L349.346 219.57C349.346 219.57 349.228 220.065 349.099 220.789V220.795C348.796 222.531 348.43 225.599 349.487 226.424Z" fill="#FFAC89"/>
<path d="M341.392 226.437L344.292 225.448L352.833 217.179L353.992 216.052L356.063 214.049L354.123 212.05L352.033 214.075L350.871 215.197L342.356 223.445L341.392 226.437Z" fill="#0CBC8B"/>
<path d="M350.871 215.197L352.833 217.179L353.992 216.052L352.033 214.075L350.871 215.197Z" fill="white"/>
<path d="M351.856 217.833C351.12 217.847 350.387 217.908 349.66 218.015C348.911 218.113 348.172 218.279 347.454 218.513C347.055 218.639 346.668 218.804 346.3 219.004C346.093 219.117 345.896 219.246 345.71 219.391L345.298 219.749C344.754 220.238 344.257 220.779 343.815 221.362C343.695 221.522 343.635 221.72 343.646 221.921C343.658 222.121 343.74 222.311 343.877 222.457C344.015 222.603 344.2 222.695 344.4 222.718C344.599 222.74 344.8 222.692 344.967 222.581L345.007 222.554L346.636 221.462L347.044 221.194C347.138 221.14 347.236 221.092 347.337 221.051C347.587 220.949 347.845 220.87 348.11 220.815C348.718 220.687 349.335 220.599 349.955 220.551C350.588 220.501 351.263 220.463 351.875 220.452H351.903C352.075 220.449 352.245 220.412 352.403 220.344C352.56 220.275 352.703 220.176 352.822 220.053C352.942 219.929 353.036 219.783 353.099 219.623C353.162 219.463 353.192 219.292 353.189 219.12C353.186 218.948 353.15 218.779 353.081 218.621C353.012 218.463 352.913 218.321 352.79 218.201C352.666 218.082 352.52 217.988 352.36 217.925C352.2 217.862 352.029 217.831 351.857 217.834L351.856 217.833Z" fill="#FFAC89"/>
<path d="M411.902 235.145H406.625V363.787H411.902V235.145Z" fill="#EFEFEF"/>
<path d="M457.393 234.813H452.117V363.455H457.393V234.813Z" fill="#EFEFEF"/>
<path d="M329.356 234.813H324.079V363.455H329.356V234.813Z" fill="#EFEFEF"/>
<g opacity="0.05">
<path d="M457.638 234.813H452.361V363.455H457.638V234.813Z" fill="black"/>
</g>
<g opacity="0.05">
<path d="M329.6 234.813H324.324V363.455H329.6V234.813Z" fill="black"/>
</g>
<path d="M254.622 234.813H249.345V363.455H254.622V234.813Z" fill="#EFEFEF"/>
<path d="M464.688 229.5H242.05V236.756H464.688V229.5Z" fill="#EFEFEF"/>
<path d="M297.37 197.027L304.19 225.666C304.296 226.112 304.3 226.576 304.201 227.023C304.102 227.47 303.904 227.889 303.62 228.249C303.336 228.608 302.974 228.898 302.562 229.098C302.15 229.298 301.698 229.402 301.24 229.402H261.021C260.357 229.402 259.711 229.184 259.183 228.781C258.654 228.378 258.273 227.813 258.096 227.172L250.235 198.534C250.112 198.083 250.094 197.611 250.183 197.153C250.272 196.694 250.466 196.263 250.749 195.892C251.032 195.52 251.397 195.219 251.815 195.012C252.233 194.805 252.694 194.697 253.161 194.697H294.419C295.101 194.697 295.764 194.927 296.299 195.35C296.834 195.773 297.212 196.364 297.37 197.027Z" fill="#EAEAEA"/>
<path d="M318.511 229.402H269.899C269.426 229.402 268.973 229.214 268.639 228.88C268.305 228.546 268.117 228.093 268.117 227.62C268.117 227.147 268.305 226.694 268.639 226.36C268.973 226.026 269.426 225.838 269.899 225.838H318.511C318.983 225.838 319.437 226.026 319.771 226.36C320.105 226.694 320.293 227.147 320.293 227.62C320.293 228.093 320.105 228.546 319.771 228.88C319.437 229.214 318.983 229.402 318.511 229.402Z" fill="#EAEAEA"/>
<path d="M275.567 216.524C278.194 216.524 280.324 214.394 280.324 211.767C280.324 209.14 278.194 207.01 275.567 207.01C272.94 207.01 270.81 209.14 270.81 211.767C270.81 214.394 272.94 216.524 275.567 216.524Z" fill="white"/>
<path d="M386.359 146.223C386.359 146.223 382.1 161.483 379.708 169.401C379.595 169.776 379.571 170.173 379.638 170.559C379.705 170.945 379.862 171.31 380.096 171.624C380.33 171.939 380.634 172.194 380.984 172.37C381.335 172.546 381.721 172.637 382.113 172.637H397.059C397.704 172.637 398.325 172.388 398.792 171.942C399.259 171.497 399.537 170.889 399.568 170.244L400.575 149.002L386.359 146.223Z" fill="#701111"/>
<path d="M409.264 180.167C409.264 180.167 404.917 177.868 405.877 166.036L396.897 164.38C396.897 164.38 397.916 174.986 393.377 178.358L409.264 180.167Z" fill="#FFAC89"/>
<g opacity="0.15">
<path d="M395.216 176.139L402.668 170.427L396.811 170.371C396.643 172.376 396.102 174.332 395.216 176.139Z" fill="black"/>
</g>
<path d="M410.966 161.445C410.348 165.034 408.392 168.435 405.227 169.597C401.777 170.97 398.043 171.478 394.352 171.077C384.524 170.28 386.448 147.934 391.11 143.59C395.772 139.245 409.466 141.982 411.138 149.239C412.003 152.995 411.554 158.03 410.966 161.445Z" fill="#FFAC89"/>
<path d="M396.905 158.692C397.355 158.692 397.72 158.328 397.72 157.878C397.72 157.428 397.355 157.064 396.905 157.064C396.456 157.064 396.091 157.428 396.091 157.878C396.091 158.328 396.456 158.692 396.905 158.692Z" fill="#0F1011"/>
<path d="M390.482 158.171C390.932 158.171 391.296 157.807 391.296 157.357C391.296 156.907 390.932 156.543 390.482 156.543C390.032 156.543 389.668 156.907 389.668 157.357C389.668 157.807 390.032 158.171 390.482 158.171Z" fill="#0F1011"/>
<path d="M389.07 155.624H389.075L391.232 155.594C391.333 155.593 391.43 155.552 391.501 155.479C391.571 155.406 391.61 155.308 391.609 155.207C391.608 155.105 391.566 155.008 391.493 154.938C391.421 154.867 391.323 154.828 391.221 154.829L389.064 154.858C389.014 154.859 388.965 154.869 388.918 154.889C388.872 154.908 388.83 154.937 388.795 154.972C388.759 155.008 388.731 155.05 388.712 155.097C388.694 155.144 388.684 155.193 388.684 155.244C388.685 155.294 388.695 155.344 388.714 155.39C388.734 155.436 388.762 155.478 388.798 155.513C388.834 155.549 388.876 155.577 388.923 155.596C388.969 155.614 389.019 155.624 389.07 155.624Z" fill="#0F1011"/>
<path d="M398.661 156.401C398.754 156.401 398.845 156.367 398.915 156.305C398.985 156.242 399.029 156.157 399.04 156.064C399.051 155.971 399.028 155.877 398.974 155.8C398.921 155.723 398.841 155.669 398.75 155.647L396.623 155.137C396.574 155.124 396.523 155.121 396.472 155.128C396.422 155.135 396.373 155.152 396.329 155.179C396.286 155.205 396.248 155.239 396.217 155.28C396.187 155.321 396.166 155.368 396.154 155.418C396.142 155.467 396.14 155.519 396.148 155.569C396.156 155.619 396.175 155.667 396.202 155.711C396.229 155.754 396.264 155.791 396.306 155.82C396.348 155.85 396.395 155.87 396.445 155.881L398.571 156.391C398.6 156.398 398.63 156.401 398.661 156.401Z" fill="#0F1011"/>
<path d="M396.535 164.288C396.535 164.288 393.53 164.608 391.422 163.874C391.422 163.874 391.44 165.853 393.819 166.046C396.197 166.239 396.535 164.288 396.535 164.288Z" fill="white"/>
<g opacity="0.15">
<path d="M393.294 162.397C393.362 162.397 393.427 162.373 393.478 162.329C393.529 162.285 393.562 162.224 393.572 162.158C393.582 162.091 393.568 162.023 393.532 161.966C393.497 161.909 393.441 161.867 393.377 161.847L391.721 161.342L392.877 158.761C392.904 158.694 392.904 158.619 392.876 158.552C392.849 158.484 392.797 158.43 392.731 158.401C392.665 158.371 392.59 158.368 392.521 158.393C392.453 158.417 392.397 158.467 392.365 158.532L390.949 161.693L393.212 162.386C393.239 162.394 393.267 162.397 393.294 162.397Z" fill="black"/>
</g>
<path d="M385.846 148.05C385.846 148.05 387.285 136.412 405.933 139.271C410.582 139.983 417.17 143.613 418.238 155.508C418.725 160.965 420.607 166.11 422.042 169.367C422.211 169.749 422.283 170.168 422.25 170.585C422.217 171.002 422.08 171.404 421.852 171.755C421.625 172.106 421.313 172.394 420.945 172.594C420.577 172.794 420.166 172.898 419.747 172.899L406.639 172.903C406.31 172.904 405.984 172.84 405.679 172.714C405.374 172.589 405.098 172.404 404.864 172.172C404.631 171.939 404.446 171.663 404.319 171.359C404.192 171.055 404.127 170.729 404.127 170.399C404.127 170.362 404.127 170.326 404.127 170.287C404.221 168.056 404.295 164.279 404.168 158.505C403.487 155.21 405.302 152.886 402.667 153.644C392.883 156.454 386.581 148.241 385.846 148.05Z" fill="#701111"/>
<path d="M401.019 161.383C400.983 161.835 401.035 162.29 401.174 162.721C401.314 163.152 401.536 163.552 401.83 163.898C402.423 164.595 403.268 165.029 404.181 165.102C405.093 165.176 405.998 164.885 406.695 164.292C407.393 163.699 407.826 162.854 407.9 161.941C407.987 161.045 407.716 160.152 407.145 159.456C406.573 158.761 405.749 158.321 404.854 158.233C404.815 158.229 404.777 158.226 404.741 158.223C402.278 158.142 401.174 159.483 401.019 161.383Z" fill="#FFAC89"/>
<path d="M81.5768 357.921L69.8604 356.527C70.3879 352.093 70.9841 346.766 71.0245 345.893C71.0245 345.949 71.0245 345.995 71.0245 346.03H82.8236C82.8208 346.387 82.8208 347.46 81.5768 357.921Z" fill="#FFBC96"/>
<path d="M34.5632 359.331L22.7642 359.293C22.7642 359.293 22.8035 347.109 22.8035 346.033H34.6026C34.6026 347.112 34.5632 359.331 34.5632 359.331Z" fill="#FFBC96"/>
<path d="M65.1443 354.197L85.9303 353.843C85.0662 331.951 84.919 306.911 84.6864 284.253C82.6362 254.549 78.1935 225.146 73.3885 195.732L73.2385 195.776L72.7991 192.781L30.055 190.143C27.1333 222.282 24.043 287.401 19.7229 353.527L40.4382 355.277C44.1706 317.189 49.9482 261.694 53.4992 221.683C63.6986 265.291 66.027 309.685 65.1443 354.197Z" fill="#191047"/>
<path d="M48.9063 363.895C51.406 363.951 52.064 360.234 49.7025 359.425C48.74 359.368 34.9148 353.758 34.3558 355.004C26.8387 360.272 21.9949 352.744 21.5364 355.779V362.495C21.5364 362.693 21.5755 362.89 21.6515 363.072C21.7275 363.255 21.8389 363.422 21.9793 363.561C22.1196 363.701 22.2862 363.812 22.4695 363.887C22.6528 363.962 22.8491 364.001 23.0472 364L48.9063 363.895Z" fill="#017FFA"/>
<path d="M95.9529 363.895C98.4526 363.951 99.1111 360.234 96.7496 359.425C95.7866 359.368 81.962 353.758 81.4024 355.004C73.8858 360.272 69.0442 352.744 68.5835 355.779V362.495C68.5835 362.693 68.6226 362.89 68.6986 363.072C68.7746 363.255 68.886 363.422 69.0264 363.561C69.1668 363.701 69.3334 363.812 69.5166 363.887C69.6999 363.962 69.8962 364.001 70.0943 364L95.9529 363.895Z" fill="#017FFA"/>
<path d="M85.3076 174.036C88.9597 173.53 98.9423 173.615 89.1693 176.508L85.3076 174.036Z" fill="#FFBC96"/>
<path d="M84.4001 180.968C84.4001 180.968 96.0677 185.761 102.773 180.293C102.94 180.152 103.062 179.965 103.122 179.754C103.183 179.544 103.179 179.32 103.111 179.112C103.044 178.904 102.916 178.72 102.744 178.585C102.572 178.45 102.364 178.369 102.145 178.353C97.6263 178.085 88.3438 177.173 89.4276 174.195H82.1375" fill="#FFBC96"/>
<path d="M93.9549 167.719C95.0431 167.718 96.1107 167.422 97.0444 166.863C97.978 166.304 98.7428 165.503 99.2577 164.544L115.298 134.593L104.691 128.913L92.38 151.904L72.2867 132.793L65.0061 142.474C67.5187 143.991 90.8202 169.302 93.9549 167.719Z" fill="#017FFA"/>
<path d="M76.4573 195.953C74.0571 201.47 28.0142 203.763 27.3838 194.057C26.9827 187.881 29.6161 182.49 29.6161 170.453C28.0081 153.953 15.5201 130.516 41.9001 129.709C42.3125 132.923 61.8259 132.935 61.9742 129.784C82.6507 129.122 74.5925 151.61 74.1312 168.168C73.9082 186.763 78.9323 190.27 76.4573 195.953Z" fill="#017FFA"/>
<path d="M61.9719 129.784C61.564 142.998 43.154 137.724 41.8977 129.709C48.8384 129.709 57.9265 129.721 61.9719 129.784Z" fill="#FFBC96"/>
<path d="M50.7558 185.976C50.8929 185.98 86.7823 184.878 86.9469 184.875L86.5654 172.39L54.6366 173.363L37.7909 138.112L26.5188 143.499L45.1203 182.425C45.6288 183.488 46.4279 184.386 47.4251 185.015C48.4224 185.643 49.5771 185.976 50.7558 185.976Z" fill="#017FFA"/>
<path d="M117.554 128.185L113.441 133.602L105.283 129.228C106.744 127.003 110.295 124.115 110.295 124.115L117.554 128.185Z" fill="#FFBC96"/>
<path d="M140.847 111.011L117.112 107.094C116.139 106.934 115.219 107.593 115.059 108.566L109.93 139.653C109.769 140.626 110.428 141.545 111.401 141.706L135.136 145.622C136.11 145.782 137.029 145.124 137.19 144.15L142.319 113.064C142.479 112.09 141.82 111.171 140.847 111.011Z" fill="#262626"/>
<path d="M138.981 113.789L117.985 110.325C117.641 110.268 117.316 110.501 117.259 110.845L116.673 114.399C116.616 114.743 116.849 115.068 117.193 115.125L138.189 118.589C138.533 118.646 138.858 118.413 138.915 118.069L139.501 114.515C139.558 114.17 139.325 113.845 138.981 113.789Z" fill="white"/>
<path d="M121.743 117.84L117.681 117.17C117.114 117.076 116.578 117.461 116.484 118.028L116.073 120.521C115.979 121.088 116.363 121.624 116.931 121.718L120.993 122.388C121.56 122.481 122.096 122.097 122.19 121.53L122.601 119.037C122.695 118.47 122.311 117.934 121.743 117.84Z" fill="#FD5D76"/>
<path opacity="0.29" d="M129.407 119.105L125.345 118.435C124.778 118.341 124.242 118.725 124.148 119.293L123.737 121.786C123.643 122.353 124.027 122.889 124.595 122.982L128.657 123.653C129.224 123.746 129.76 123.362 129.854 122.795L130.265 120.302C130.359 119.735 129.975 119.199 129.407 119.105Z" fill="white"/>
<path opacity="0.29" d="M137.071 120.369L133.008 119.699C132.441 119.605 131.905 119.989 131.811 120.557L131.4 123.05C131.307 123.617 131.691 124.153 132.258 124.246L136.32 124.917C136.888 125.01 137.423 124.626 137.517 124.059L137.928 121.566C138.022 120.998 137.638 120.463 137.071 120.369Z" fill="white"/>
<path opacity="0.29" d="M120.774 123.715L116.712 123.045C116.145 122.951 115.609 123.335 115.515 123.902L115.104 126.395C115.01 126.963 115.394 127.499 115.962 127.592L120.024 128.262C120.591 128.356 121.127 127.972 121.221 127.405L121.632 124.912C121.726 124.344 121.342 123.809 120.774 123.715Z" fill="white"/>
<path opacity="0.29" d="M128.438 124.979L124.376 124.309C123.809 124.216 123.273 124.6 123.179 125.167L122.768 127.66C122.674 128.227 123.058 128.763 123.626 128.857L127.688 129.527C128.255 129.62 128.791 129.236 128.885 128.669L129.296 126.176C129.39 125.609 129.006 125.073 128.438 124.979Z" fill="white"/>
<path opacity="0.29" d="M136.121 126.315L132.057 125.644C131.49 125.55 130.954 125.934 130.86 126.501L130.448 128.995C130.354 129.563 130.738 130.099 131.306 130.193L135.37 130.864C135.937 130.957 136.473 130.573 136.567 130.006L136.979 127.512C137.073 126.944 136.688 126.408 136.121 126.315Z" fill="white"/>
<path opacity="0.29" d="M119.805 129.59L115.743 128.919C115.175 128.826 114.64 129.21 114.546 129.777L114.135 132.27C114.041 132.837 114.425 133.373 114.993 133.467L119.055 134.137C119.622 134.231 120.158 133.847 120.252 133.279L120.663 130.786C120.757 130.219 120.373 129.683 119.805 129.59Z" fill="white"/>
<path opacity="0.29" d="M127.469 130.853L123.407 130.183C122.839 130.09 122.304 130.474 122.21 131.041L121.799 133.534C121.705 134.101 122.089 134.637 122.656 134.731L126.719 135.401C127.286 135.495 127.822 135.111 127.915 134.543L128.327 132.05C128.42 131.483 128.036 130.947 127.469 130.853Z" fill="white"/>
<path opacity="0.29" d="M118.836 135.464L114.774 134.793C114.206 134.7 113.671 135.084 113.577 135.651L113.166 138.144C113.072 138.711 113.456 139.247 114.024 139.341L118.086 140.011C118.653 140.105 119.189 139.721 119.283 139.153L119.694 136.66C119.788 136.093 119.404 135.557 118.836 135.464Z" fill="white"/>
<path opacity="0.29" d="M126.5 136.728L122.437 136.058C121.87 135.964 121.334 136.348 121.241 136.916L120.829 139.409C120.736 139.976 121.12 140.512 121.687 140.605L125.749 141.276C126.317 141.369 126.853 140.985 126.946 140.418L127.358 137.925C127.451 137.358 127.067 136.822 126.5 136.728Z" fill="white"/>
<path d="M131.069 131.448C130.934 131.426 130.796 131.431 130.663 131.462C130.53 131.493 130.404 131.55 130.293 131.63C130.182 131.709 130.087 131.81 130.015 131.926C129.943 132.042 129.894 132.172 129.872 132.306L129.13 136.801L128.961 137.813L128.49 140.664C128.446 140.937 128.511 141.216 128.672 141.44C128.832 141.665 129.076 141.816 129.348 141.861L133.411 142.531C133.545 142.554 133.683 142.549 133.817 142.518C133.95 142.487 134.076 142.43 134.187 142.35C134.298 142.271 134.392 142.17 134.464 142.054C134.537 141.938 134.585 141.809 134.607 141.674L135.078 138.822L135.246 137.81L135.988 133.316C136.033 133.043 135.968 132.764 135.807 132.54C135.646 132.315 135.403 132.164 135.13 132.119L131.069 131.448Z" fill="#0CBC8B"/>
<path d="M108.841 129.119C108.841 129.119 106.425 127.909 107.975 126.276C110.024 124.119 112.74 121.797 114.312 122.632C115.302 123.159 112.496 126.178 110.379 128.296" fill="#FFBC96"/>
<path d="M47.4691 122.143C47.4747 121.986 47.4747 121.835 47.4747 121.671C47.4804 120.649 47.436 119.536 47.3343 118.323L48.5142 118.103L56.3123 116.659C56.1568 118.654 56.1871 120.659 56.4027 122.649C56.4302 122.873 56.4589 123.104 56.492 123.335C56.5145 123.514 56.5432 123.699 56.5763 123.88C56.6095 124.06 56.6325 124.233 56.6718 124.407C56.7393 124.778 56.8179 125.149 56.9134 125.514C56.931 125.602 56.9535 125.688 56.9809 125.773C56.9823 125.788 56.9861 125.803 56.9921 125.818C57.0371 126.004 57.0932 126.195 57.155 126.374C57.2168 126.582 57.2843 126.784 57.3635 126.987C57.386 127.048 57.4084 127.116 57.436 127.178C57.509 127.38 57.5933 127.576 57.6832 127.767C57.7787 127.986 57.8855 128.2 57.9978 128.408C57.9993 128.408 58.0008 128.408 58.0018 128.409C58.0029 128.41 58.0034 128.412 58.0034 128.413C58.4271 129.243 59.023 129.973 59.7514 130.554H45.6318C46.5027 129.048 47.4017 126.458 47.4691 122.143Z" fill="#FFBC96"/>
<path opacity="0.15" d="M58.0058 128.416L50.5488 122.71L56.4057 122.65C56.5754 124.655 57.1181 126.61 58.0058 128.416Z" fill="black"/>
<path d="M42.2427 113.736C42.8641 117.325 44.8233 120.724 47.9894 121.883C51.7477 123.259 54.5317 123.353 58.8653 123.353C64.7795 123.353 64.584 117.185 64.7497 110.97C64.9183 104.73 64.4205 98.0368 62.0831 95.8624C57.4197 91.5226 43.7254 94.2712 42.0601 101.53C41.1987 105.285 41.6516 110.319 42.2427 113.736Z" fill="#FFBC96"/>
<path d="M68.4037 95.7939C67.4143 92.1666 64.3313 90.3939 59.2324 91.7266C55.6062 92.6745 55.1471 91.8221 52.0766 90.3439C50.318 89.4972 44.5476 89.8843 43.1199 93.7892C41.5894 97.9728 36.8541 94.5848 36.4141 101.4C36.0467 107.105 37.1513 114.513 43.4885 119.499C44.4994 120.515 45.648 121.384 46.9007 122.081C47.4384 122.4 47.5688 122.14 47.7553 121.543C48.4149 119.433 49.7488 112.055 49.2038 106.051C49.1144 105.063 49.2987 103.528 51.8316 103.421C54.5982 103.305 61.7883 103.927 64.333 102.103C64.3319 102.103 69.3931 99.4219 68.4037 95.7939Z" fill="#505C67"/>
<path d="M56.3 110.971C56.7496 110.971 57.1141 110.606 57.1141 110.157C57.1141 109.707 56.7496 109.343 56.3 109.343C55.8503 109.343 55.4858 109.707 55.4858 110.157C55.4858 110.606 55.8503 110.971 56.3 110.971Z" fill="#505C67"/>
<path d="M62.7223 110.444C63.172 110.444 63.5365 110.08 63.5365 109.63C63.5365 109.181 63.172 108.816 62.7223 108.816C62.2727 108.816 61.9082 109.181 61.9082 109.63C61.9082 110.08 62.2727 110.444 62.7223 110.444Z" fill="#505C67"/>
<path d="M64.1333 107.895H64.1288L61.9719 107.868C61.873 107.864 61.7796 107.821 61.7115 107.75C61.6433 107.678 61.6056 107.582 61.6062 107.483C61.6069 107.384 61.6458 107.29 61.715 107.219C61.7841 107.148 61.878 107.107 61.9769 107.104H61.9814L64.1384 107.13C64.2399 107.131 64.3369 107.172 64.4082 107.244C64.4795 107.316 64.5192 107.414 64.5185 107.515C64.5178 107.617 64.4769 107.714 64.4046 107.785C64.3324 107.856 64.2348 107.896 64.1333 107.895Z" fill="#505C67"/>
<path d="M54.5423 108.681C54.4487 108.681 54.3585 108.646 54.2887 108.584C54.2188 108.522 54.1742 108.436 54.1633 108.343C54.1523 108.25 54.1758 108.157 54.2293 108.08C54.2828 108.003 54.3626 107.949 54.4535 107.927L56.5796 107.415C56.6783 107.391 56.7824 107.408 56.869 107.461C56.9555 107.514 57.0175 107.599 57.0412 107.698C57.0649 107.796 57.0484 107.901 56.9953 107.987C56.9423 108.074 56.857 108.136 56.7583 108.159L54.6322 108.671C54.6027 108.678 54.5725 108.681 54.5423 108.681Z" fill="#505C67"/>
<path d="M52.0647 112.147C52.1083 112.603 52.0611 113.062 51.9257 113.499C51.7903 113.936 51.5694 114.341 51.2758 114.692C50.9823 115.043 50.622 115.332 50.2158 115.542C49.8097 115.752 49.3657 115.88 48.9099 115.917C48.454 115.954 47.9953 115.901 47.5604 115.759C47.1255 115.617 46.7231 115.391 46.3765 115.092C46.03 114.794 45.7462 114.43 45.5417 114.02C45.3372 113.611 45.216 113.166 45.1852 112.709C45.1403 112.256 45.1871 111.799 45.3227 111.364C45.4584 110.929 45.6801 110.526 45.9747 110.179C46.2694 109.831 46.6309 109.547 47.0377 109.342C47.4446 109.138 47.8884 109.017 48.3429 108.988C50.8027 108.911 51.909 110.249 52.0647 112.147Z" fill="#FFBC96"/>
<g opacity="0.15">
<path d="M59.9139 114.672C59.8466 114.672 59.7815 114.648 59.7305 114.604C59.6795 114.561 59.6459 114.5 59.6359 114.433C59.6259 114.367 59.6401 114.299 59.676 114.242C59.7119 114.185 59.767 114.143 59.8313 114.123L61.4871 113.614L60.3291 111.036C60.3135 111.002 60.3046 110.965 60.3032 110.928C60.3017 110.891 60.3077 110.854 60.3207 110.819C60.3336 110.784 60.3534 110.752 60.3788 110.725C60.4042 110.698 60.4348 110.676 60.4687 110.661C60.5026 110.646 60.5392 110.637 60.5764 110.636C60.6136 110.635 60.6506 110.642 60.6853 110.655C60.72 110.669 60.7516 110.689 60.7785 110.714C60.8053 110.74 60.8267 110.771 60.8416 110.805L62.1299 113.674C62.1463 113.71 62.1548 113.75 62.1548 113.79C62.1548 113.83 62.1464 113.869 62.1299 113.905C62.1135 113.942 62.0895 113.974 62.0596 114.001C62.0296 114.027 61.9944 114.047 61.9563 114.058L59.9965 114.66C59.9698 114.668 59.9419 114.672 59.9139 114.672Z" fill="black"/>
</g>
<path d="M56.6765 116.568C56.6765 116.568 59.6819 116.886 61.7895 116.15C61.7895 116.15 61.7726 118.128 59.3948 118.323C57.017 118.518 56.6765 116.568 56.6765 116.568Z" fill="#F8FCFF"/>
</svg>
