<svg width="468" height="272" viewBox="0 0 468 272" fill="none" xmlns="http://www.w3.org/2000/svg">
<path d="M38.714 271.183C25.3889 271.195 13.4901 263.122 8.9724 251.004C-0.715328 224.916 -9.25041 176.59 28.6799 124.319C70.6204 66.5219 154.521 6.77206 213.535 0.65097C305.987 -8.93355 331.828 95.2667 373.31 119.514C409.151 140.464 461.055 171.88 467.839 237.539C469.587 254.346 456.908 269.34 439.524 271.029C438.477 271.131 437.428 271.182 436.375 271.182L38.714 271.183Z" fill="#F3F5FD"/>
<path d="M43.3379 269.427C35.4056 266.968 27.7096 263.756 20.6972 254.766C19.2582 252.923 17.9061 250.563 18.6947 248.358C19.2882 246.698 21.0052 245.634 22.7498 245.364C23.3996 245.269 24.0582 245.251 24.7122 245.31C24.7154 245.31 24.7186 245.312 24.7198 245.31C25.7247 245.412 26.7181 245.607 27.6876 245.891L27.9647 245.971C32.5928 247.287 37.0015 249.278 41.0483 251.88C41.415 252.114 41.85 252.217 42.2825 252.172C42.715 252.127 43.1196 251.937 43.4305 251.633C43.7414 251.329 43.9404 250.929 43.9951 250.498C44.0498 250.066 43.9569 249.629 43.7316 249.257C43.3188 248.583 42.8384 247.952 42.2978 247.375C41.5007 246.541 40.6273 245.784 39.689 245.113C38.4422 244.203 37.1113 243.39 35.8093 242.56C30.969 239.477 26.3832 236.012 22.0962 232.197C19.0363 229.471 16.0438 226.447 14.5896 222.615C13.9211 220.852 13.6171 218.821 14.4141 217.113C15.7294 214.309 19.4552 213.524 22.5019 214.105C27.8405 215.128 32.1055 219.041 35.8874 222.942C39.0237 226.183 42.5377 229.771 47.0438 229.971C47.812 230.043 48.5843 229.888 49.2654 229.525C50.5506 228.747 50.881 226.943 50.4228 225.511C49.9646 224.078 48.9049 222.934 47.8812 221.835C41.9346 215.454 36.0813 208.816 32.2192 200.996C28.3572 193.177 26.6462 183.947 29.33 175.645C30.117 173.218 31.2993 170.857 33.1436 169.094C34.9879 167.331 37.5743 166.225 40.1063 166.563C43.5558 167.017 46.1539 169.929 47.9016 172.934C53.9092 183.248 53.5419 195.886 55.234 207.7C55.7078 211.008 56.3955 214.4 58.3659 217.122C58.5476 217.384 58.7833 217.604 59.0572 217.767C60.6784 218.706 62.1335 216.813 62.7418 215.206C65.1448 208.851 65.7456 201.583 70.0482 196.323C71.6902 194.32 74.0131 192.647 76.602 192.664C79.7639 192.685 82.4713 195.326 83.3941 198.351C84.3168 201.375 83.7645 204.661 82.7761 207.664C80.941 213.233 77.6521 218.237 73.7764 222.634C71.7339 224.957 69.4226 227.302 68.8102 230.331C68.6225 231.36 68.701 232.421 69.0384 233.412C69.3758 234.402 69.9608 235.29 70.7378 235.991C71.1011 236.308 71.5242 236.548 71.982 236.697C72.4397 236.847 72.9229 236.903 73.4028 236.863C74.4409 236.768 75.3796 236.238 76.2844 235.724C76.6645 235.508 77.0453 235.288 77.4286 235.073C78.9398 234.212 80.4513 233.351 81.9631 232.489C85.8059 230.296 90.4461 228.056 94.4487 229.944C96.4913 230.91 97.8297 232.807 98.4589 234.985C99.0225 236.961 99.0225 239.056 98.4589 241.032C97.2666 245.143 89.7516 256.58 86.6521 259.53C83.0328 262.977 70.4811 277.838 43.3379 269.427Z" fill="#0C8234"/>
<path d="M366.905 3.10046H118.159V183.235H366.905V3.10046Z" fill="#DEE8F5"/>
<path d="M366.905 3.10046H118.159V17.939H366.905V3.10046Z" fill="#C1D8ED"/>
<path d="M358.574 14.2428C360.63 14.2428 362.297 12.576 362.297 10.5199C362.297 8.46376 360.63 6.79694 358.574 6.79694C356.518 6.79694 354.851 8.46376 354.851 10.5199C354.851 12.576 356.518 14.2428 358.574 14.2428Z" fill="white"/>
<path d="M170.412 39.9819H137.482V72.911H170.412V39.9819Z" fill="white"/>
<path d="M214.705 39.9819H181.775V72.911H214.705V39.9819Z" fill="white"/>
<path d="M258.997 39.9819H226.067V72.911H258.997V39.9819Z" fill="white"/>
<path d="M303.29 39.9819H270.36V72.911H303.29V39.9819Z" fill="white"/>
<path d="M170.412 83.8708H137.482V116.8H170.412V83.8708Z" fill="white"/>
<path d="M214.705 83.8708H181.775V116.8H214.705V83.8708Z" fill="#FFC239"/>
<path d="M258.997 83.8708H226.067V116.8H258.997V83.8708Z" fill="white"/>
<path d="M303.29 83.8708H270.36V116.8H303.29V83.8708Z" fill="white"/>
<path d="M170.412 127.759H137.482V160.688H170.412V127.759Z" fill="white"/>
<path d="M214.705 127.759H181.775V160.688H214.705V127.759Z" fill="white"/>
<path d="M258.997 127.759H226.067V160.688H258.997V127.759Z" fill="white"/>
<path d="M303.29 127.759H270.36V160.688H303.29V127.759Z" fill="white"/>
<path d="M347.583 39.9819H314.653V72.911H347.583V39.9819Z" fill="white"/>
<path d="M347.583 83.8708H314.653V116.8H347.583V83.8708Z" fill="white"/>
<path d="M347.583 127.759H314.653V160.688H347.583V127.759Z" fill="white"/>
<path d="M162.233 267.638L153.881 266.645C154.257 263.483 154.682 259.687 154.71 259.064C154.71 259.104 154.71 259.137 154.71 259.162H163.121C163.119 259.413 163.119 260.181 162.233 267.638Z" fill="#E98862"/>
<path d="M128.72 268.643L120.309 268.616C120.309 268.616 120.337 259.931 120.337 259.162H128.748C128.748 259.933 128.72 268.643 128.72 268.643Z" fill="#E98862"/>
<path d="M165.335 264.73C164.639 247.105 164.597 228.593 164.379 210.921C161.486 191.861 159.966 170.955 156.395 152.029L156.288 152.061L155.976 149.926L125.507 148.046L124.321 167.95H124.435C122.901 194.615 119.936 237.482 118.142 264.504L132.908 265.752C135.545 239.176 139.445 196.837 141.828 170.644C144.443 183.991 147.31 199.021 149.632 212.526C150.14 229.779 150.565 247.757 150.519 264.982L165.335 264.73Z" fill="#262626"/>
<path d="M138.944 271.896C139.16 271.895 139.374 271.851 139.573 271.768C139.772 271.684 139.953 271.562 140.105 271.408C140.257 271.255 140.378 271.073 140.459 270.873C140.541 270.673 140.582 270.459 140.581 270.243C140.581 270.203 140.581 270.163 140.577 270.123C140.552 269.81 140.439 269.511 140.251 269.26C140.062 269.01 139.806 268.819 139.512 268.709L129.723 265.431C129.533 265.368 129.332 265.347 129.134 265.369C128.935 265.391 128.744 265.456 128.572 265.559C127.227 266.492 125.617 266.97 123.979 266.92C122.704 266.829 121.48 266.382 120.447 265.63C120.356 265.555 120.246 265.508 120.129 265.494C120.013 265.48 119.895 265.499 119.788 265.549C119.682 265.6 119.593 265.679 119.53 265.778C119.467 265.878 119.434 265.993 119.435 266.11V270.897C119.435 271.181 119.548 271.454 119.749 271.655C119.95 271.857 120.223 271.97 120.507 271.97H120.512L138.944 271.896Z" fill="#C1D8ED"/>
<path d="M172.48 271.896C172.696 271.895 172.91 271.851 173.109 271.768C173.308 271.684 173.489 271.562 173.641 271.409C173.793 271.255 173.913 271.073 173.995 270.873C174.077 270.673 174.118 270.459 174.117 270.243C174.117 270.203 174.117 270.163 174.112 270.123C174.088 269.81 173.975 269.511 173.787 269.26C173.598 269.01 173.341 268.819 173.047 268.709L163.258 265.431C163.069 265.368 162.868 265.347 162.669 265.369C162.47 265.391 162.279 265.455 162.108 265.558C160.762 266.492 159.152 266.969 157.515 266.92C156.24 266.829 155.016 266.382 153.982 265.63C153.891 265.555 153.781 265.508 153.665 265.494C153.548 265.479 153.43 265.498 153.324 265.549C153.218 265.599 153.128 265.679 153.065 265.778C153.003 265.878 152.97 265.993 152.97 266.11V270.897C152.97 271.181 153.083 271.454 153.284 271.655C153.486 271.856 153.758 271.969 154.043 271.969H154.047L172.48 271.896Z" fill="#C1D8ED"/>
<path d="M140.34 88.4184L138.969 88.879C138.969 88.879 139.148 93.7425 139.655 96.2167C140.161 98.691 140.556 101.915 142.131 102.269C144.22 102.739 146.712 102.913 148.523 102.265C149.892 101.776 150.103 97.1271 150.236 94.831C150.296 93.811 150.166 93.8999 149.147 93.9696C147.061 94.113 143.817 94.2231 142.623 93.6492C140.803 92.7761 140.34 88.4184 140.34 88.4184Z" fill="#0F1011"/>
<path d="M135.27 106.645C135.27 106.645 138.367 105.003 137.675 96.5703L144.073 95.3837C144.073 95.3837 143.352 102.945 146.592 105.345L135.27 106.645Z" fill="#E98862"/>
<path d="M134.044 93.3003C134.487 95.8587 135.883 98.2816 138.141 99.1074C140.82 100.089 142.804 100.155 145.893 100.155C150.108 100.155 149.969 95.759 150.088 91.3287C150.208 86.8833 150.18 83.1255 148.514 81.5756C145.19 78.4818 135.101 79.4258 133.914 84.6001C133.3 87.2762 133.623 90.865 134.044 93.3003Z" fill="#E98862"/>
<path d="M132.015 90.0096C132.63 93.8988 133.437 95.1255 134.601 96.9845C135.29 98.1464 136.216 99.1505 137.319 99.9317C138.177 100.484 146.592 100.369 148.045 100.157C150.188 99.8436 150.513 93.737 150.13 93.737C149.653 93.737 149.54 93.7241 149.003 93.7241C148.024 93.7241 147.926 87.8902 147.742 85.309C147.892 85.2881 148.044 85.2775 148.196 85.2774C152.804 85.2758 130.982 83.4808 132.015 90.0096Z" fill="#0F1011"/>
<path d="M146.917 93.8486C146.289 93.8646 145.68 93.64 145.213 93.2207C144.746 92.8014 144.457 92.2193 144.405 91.5939C144.374 91.2781 144.404 90.9592 144.496 90.6553C144.587 90.3515 144.738 90.0686 144.939 89.8229C145.139 89.5772 145.387 89.3735 145.666 89.2234C145.946 89.0733 146.252 88.9798 146.568 88.9482C146.59 88.9458 146.612 88.9442 146.633 88.9426C146.69 90.6888 146.78 92.5266 146.917 93.8486Z" fill="#E98862"/>
<path d="M132.015 90.0096C132.015 90.0096 129.854 79.0846 140.294 78.075C150.734 77.0653 150.107 86.8261 150.107 86.8261L145.965 88.939C145.965 88.939 141.341 90.2074 132.015 90.0096Z" fill="#262626"/>
<path d="M133.503 88.7388C133.478 87.7892 133.831 86.8685 134.484 86.1787C135.137 85.489 136.037 85.0866 136.987 85.0601C137.937 85.0336 138.858 85.385 139.548 86.0372C140.239 86.6894 140.643 87.5891 140.67 88.5386" fill="#0F1011"/>
<path d="M145.967 88.9366C145.967 88.9366 149.373 87.788 151.197 86.7115C153.138 85.5649 155.762 83.4819 155.749 82.862C155.725 81.7807 151.949 81.4791 148.864 81.6012L148.887 81.6473C149.402 82.6656 149.545 83.8312 149.293 84.9437C149.041 86.0562 148.409 87.0461 147.506 87.7432L145.967 88.9366Z" fill="#262626"/>
<path d="M116.538 162.477C116.538 163.671 117.168 167.66 116.155 167.945C115.547 168.116 114.829 165.142 114.829 165.142" fill="#E98862"/>
<path d="M111.754 161.85C111.754 161.85 108.444 169.906 112.219 174.533C112.316 174.651 112.445 174.737 112.591 174.78C112.736 174.823 112.892 174.821 113.036 174.775C113.181 174.728 113.308 174.639 113.402 174.519C113.495 174.399 113.55 174.254 113.56 174.102C113.743 170.982 114.372 164.573 116.43 165.322V160.288" fill="#E98862"/>
<path d="M186.386 118.932C186.386 118.932 191.008 115.26 191.335 113.942C191.662 112.623 188.407 110.029 188.407 110.029C188.407 110.029 192.735 105.663 191.872 105.033C190.853 104.287 185.831 110.633 185.831 110.633C185.831 110.633 186.54 108.35 185.656 108.2C185.293 108.138 185.005 108.495 184.436 110.111C183.788 111.953 182.493 114.723 182.493 114.723L186.386 118.932Z" fill="#E98862"/>
<path d="M181.518 114.05L167.846 129.433L157.152 110.289C156.14 107.265 153.835 105.239 149.133 105.038C147.525 104.969 139.679 104.958 133.934 104.958C130.075 104.958 126.907 106.142 125.077 107.972C124.155 108.88 123.465 109.996 123.066 111.227L123.01 111.207L113.818 136.204C113.715 136.484 113.641 136.775 113.597 137.07L109.886 162.066L118.525 163.348L122.169 138.796L125.882 128.7C126.269 130.252 126.48 131.842 126.512 133.441C126.512 141.851 122.707 145.623 122.987 149.941C123.428 156.728 156.401 155.124 158.081 151.269C159.811 147.294 156.3 144.845 156.454 131.842C156.47 130.427 156.579 128.946 156.73 127.439L163.218 139.054C163.558 139.662 164.038 140.18 164.619 140.565C165.2 140.949 165.864 141.19 166.557 141.265C167.249 141.34 167.95 141.249 168.6 140.998C169.25 140.748 169.831 140.345 170.293 139.824L188.269 118.799L181.518 114.05Z" fill="#367CFF"/>
<path d="M388.899 208.551L376.288 270.06C376.207 270.381 376.021 270.666 375.76 270.869C375.499 271.073 375.177 271.184 374.846 271.184C374.62 271.184 374.397 271.132 374.194 271.033C373.991 270.934 373.813 270.79 373.674 270.612C373.535 270.434 373.438 270.226 373.391 270.005C373.345 269.784 373.349 269.555 373.404 269.336L386.196 207.116L388.899 208.551Z" fill="#C1D8ED"/>
<path d="M418.529 208.452L431.14 269.96C431.221 270.282 431.407 270.567 431.668 270.77C431.929 270.974 432.251 271.085 432.582 271.085C432.808 271.085 433.031 271.033 433.234 270.934C433.437 270.835 433.615 270.691 433.754 270.513C433.893 270.335 433.99 270.127 434.036 269.906C434.083 269.685 434.079 269.456 434.024 269.237L421.233 207.017L418.529 208.452Z" fill="#C1D8ED"/>
<path d="M431.784 202.534H375.643C374.224 202.534 373.073 203.685 373.073 205.104V210.762C373.073 212.182 374.224 213.332 375.643 213.332H431.784C433.203 213.332 434.354 212.182 434.354 210.762V205.104C434.354 203.685 433.203 202.534 431.784 202.534Z" fill="#DEE8F5"/>
<path d="M415.826 174.086C414.148 173.536 412.425 174.152 410.778 175.407C412.948 169.925 413.844 164.974 410.133 164.752C407.536 164.596 405.547 166.588 404.036 169.42C403.505 164.44 402.133 160.726 399.062 161.957C395.69 163.309 395.177 167.942 395.688 172.79C394.203 170.314 392.605 168.933 391.151 170.387C386.816 174.721 397.455 186.936 397.455 186.936H400.099L401.607 188.573C401.301 189.218 401.134 189.603 401.134 189.603L403.05 193.5C403.05 193.5 422.792 176.366 415.826 174.086Z" fill="#6FBC0C"/>
<path d="M411.089 202.227H396.135L393.632 184.77H413.592L411.089 202.227Z" fill="#C1D8ED"/>
</svg>
